<svg width="60" height="60" viewBox="0 0 60 60" fill="none" xmlns="http://www.w3.org/2000/svg">
<g clip-path="url(#clip0_155_4703)">
<path d="M44.9999 42.5001C44.9999 41.1201 43.88 40.0001 42.5 40.0001C41.12 40.0001 40 41.1201 40 42.5001C40 43.8801 41.12 45 42.5 45C43.88 45 44.9999 43.8801 44.9999 42.5001Z" fill="url(#paint0_linear_155_4703)"/>
<path d="M37.5001 31.25V26.25C37.5001 25.56 36.94 24.9999 36.25 24.9999C35.56 24.9999 35 25.56 35 26.25V31.25C35 31.94 35.56 32.5001 36.25 32.5001C36.94 32.5001 37.5001 31.94 37.5001 31.25Z" fill="url(#paint1_linear_155_4703)"/>
<path d="M42.5001 29.4875V26.25C42.5001 25.56 41.94 24.9999 41.25 24.9999C40.56 24.9999 40 25.56 40 26.25V29.4875C40 30.1775 40.56 30.7376 41.25 30.7376C41.94 30.7374 42.5001 30.1775 42.5001 29.4875Z" fill="url(#paint2_linear_155_4703)"/>
<path d="M47.5 28.7499V26.25C47.5 25.56 46.9399 24.9999 46.2499 24.9999C45.5599 24.9999 45 25.56 45 26.25V28.7499C45 29.4399 45.56 30 46.25 30C46.94 30 47.5 29.4399 47.5 28.7499Z" fill="url(#paint3_linear_155_4703)"/>
<path d="M46.25 32.4999C38.6699 32.4999 32.5 38.6674 32.5 46.2499C32.5 53.8324 38.6699 60 46.25 60C53.83 60 59.9999 53.8325 59.9999 46.25C59.9999 38.6675 53.8299 32.4999 46.25 32.4999ZM46.25 57.5C40.0475 57.5 35 52.4525 35 46.25C35 40.0475 40.0475 35 46.25 35C52.4525 35 57.5 40.0475 57.5 46.25C57.5 52.4525 52.4525 57.5 46.25 57.5Z" fill="url(#paint4_linear_155_4703)"/>
<path d="M50 47.5C48.62 47.5 47.5 48.62 47.5 50C47.5 51.38 48.62 52.5 50 52.5C51.38 52.5 52.4999 51.3801 52.4999 50.0001C52.4999 48.6201 51.38 47.5 50 47.5Z" fill="url(#paint5_linear_155_4703)"/>
<path d="M49.3076 40.1304C48.6902 39.8254 47.9402 40.0729 47.6301 40.6905L42.63 50.6904C42.3225 51.3079 42.5725 52.0579 43.1901 52.368C43.3725 52.458 43.5626 52.5005 43.7501 52.5005C44.2076 52.5005 44.6477 52.248 44.8676 51.808L49.8677 41.8081C50.1752 41.1904 49.9252 40.4404 49.3076 40.1304Z" fill="url(#paint6_linear_155_4703)"/>
<path d="M36.25 5.00006C35.56 5.00006 35 5.5601 35 6.2501V11.25C35 11.94 35.56 12.5001 36.25 12.5001C36.94 12.5001 37.5001 11.94 37.5001 11.25V6.24998C37.5001 5.55998 36.94 5.00006 36.25 5.00006Z" fill="url(#paint7_linear_155_4703)"/>
<path d="M53.75 17.5C57.1975 17.5 60 14.695 60 11.25V6.24996C60 2.805 57.1975 0 53.75 0H6.24996C2.80254 0 0 2.805 0 6.24996V11.25C0 14.695 2.80254 17.5 6.24996 17.5H22.5V19.9999H6.24996C2.80254 20 0 22.805 0 26.25V31.25C0 34.695 2.80254 37.5 6.24996 37.5H22.5V40H21.25C20.56 40 19.9999 40.56 19.9999 41.25V42.5H18.75C18.06 42.5 17.5 43.0601 17.5 43.7501V45H6.24996C5.55996 45 4.99992 45.56 4.99992 46.25C4.99992 46.94 5.55996 47.5001 6.24996 47.5001H17.5V48.75C17.5 49.44 18.06 50 18.75 50H28.75C29.44 50 30 49.44 30 48.75V43.75C30 43.06 29.44 42.4999 28.75 42.4999H27.4999V41.25C27.4999 40.56 26.9399 40 26.2499 40H24.9998V37.5H31.9098C32.5998 37.5 33.1598 36.94 33.1598 36.25C33.1598 35.56 32.5998 34.9999 31.9098 34.9999H6.24996C4.18242 34.9999 2.49996 33.3175 2.49996 31.2499V26.25C2.49996 24.1825 4.18242 22.5 6.24996 22.5H53.7499C55.8175 22.5 57.4999 24.1825 57.4999 26.25V31.25C57.4999 31.815 57.3574 32.3801 57.0775 32.9325C56.7649 33.5475 57.0124 34.3 57.6274 34.6125C58.2475 34.9275 58.9949 34.68 59.3099 34.0625C59.7674 33.1575 59.9999 32.21 59.9999 31.25V26.25C59.9999 22.805 57.1973 20 53.7499 20H25V17.5001H53.75V17.5ZM26.25 45H27.5V47.5H20V45H21.2501C21.9401 45 22.5001 44.44 22.5001 43.75V42.4999H25.0001V43.75C25 44.44 25.56 45 26.25 45ZM6.24996 15C4.18242 15 2.49996 13.3175 2.49996 11.25V6.24996C2.49996 4.18242 4.18242 2.49996 6.24996 2.49996H53.7499C55.8175 2.49996 57.4999 4.18242 57.4999 6.24996V11.25C57.4999 13.3175 55.8175 15 53.7499 15H6.24996Z" fill="url(#paint8_linear_155_4703)"/>
<path d="M5 28.7499C5 30.8175 6.68246 32.4999 8.75 32.4999C10.8175 32.4999 12.5 30.8175 12.5 28.7499C12.5 26.6824 10.8175 24.9999 8.75 24.9999C6.68246 24.9999 5 26.6825 5 28.7499ZM9.99992 28.7499C9.99992 29.4399 9.43742 30 8.74988 30C8.06246 30 7.49996 29.4399 7.49996 28.7499C7.49996 28.0599 8.06246 27.4999 8.75 27.4999C9.43742 27.5 9.99992 28.0599 9.99992 28.7499Z" fill="url(#paint9_linear_155_4703)"/>
<path d="M51.25 5.00006C50.56 5.00006 50 5.5601 50 6.2501V11.25C50 11.94 50.56 12.5001 51.25 12.5001C51.94 12.5001 52.5001 11.94 52.5001 11.25V6.24998C52.5001 5.55998 51.94 5.00006 51.25 5.00006Z" fill="url(#paint10_linear_155_4703)"/>
<path d="M8.75 5.00006C6.68246 5.00006 5 6.68252 5 8.75006C5 10.8176 6.68246 12.5001 8.75 12.5001C10.8175 12.5001 12.5 10.8176 12.5 8.75006C12.5 6.68252 10.8174 5.00006 8.75 5.00006ZM8.75 9.99998C8.06246 9.99998 7.49996 9.44006 7.49996 8.75006C7.49996 8.06006 8.06246 7.50002 8.75 7.50002C9.43754 7.50002 10 8.06006 10 8.75006C10 9.44006 9.43742 9.99998 8.75 9.99998Z" fill="url(#paint11_linear_155_4703)"/>
<path d="M52.5001 29.4875V26.25C52.5001 25.56 51.94 24.9999 51.25 24.9999C50.56 24.9999 50 25.56 50 26.25V29.4875C50 30.1775 50.56 30.7376 51.25 30.7376C51.94 30.7374 52.5001 30.1775 52.5001 29.4875Z" fill="url(#paint12_linear_155_4703)"/>
<path d="M46.25 5.00006C45.56 5.00006 45 5.5601 45 6.2501V11.25C45 11.94 45.56 12.5001 46.25 12.5001C46.94 12.5001 47.5001 11.94 47.5001 11.25V6.24998C47.5 5.55998 46.94 5.00006 46.25 5.00006Z" fill="url(#paint13_linear_155_4703)"/>
<path d="M41.25 5.00006C40.56 5.00006 40 5.5601 40 6.2501V11.25C40 11.94 40.56 12.5001 41.25 12.5001C41.94 12.5001 42.5001 11.94 42.5001 11.25V6.24998C42.5001 5.55998 41.94 5.00006 41.25 5.00006Z" fill="url(#paint14_linear_155_4703)"/>
</g>
<defs>
<linearGradient id="paint0_linear_155_4703" x1="40" y1="42.5001" x2="44.9999" y2="42.5001" gradientUnits="userSpaceOnUse">
<stop stop-color="#0568EA"/>
<stop offset="1" stop-color="#08B5F7"/>
</linearGradient>
<linearGradient id="paint1_linear_155_4703" x1="35" y1="28.75" x2="37.5001" y2="28.75" gradientUnits="userSpaceOnUse">
<stop stop-color="#0568EA"/>
<stop offset="1" stop-color="#08B5F7"/>
</linearGradient>
<linearGradient id="paint2_linear_155_4703" x1="40" y1="27.8687" x2="42.5001" y2="27.8687" gradientUnits="userSpaceOnUse">
<stop stop-color="#0568EA"/>
<stop offset="1" stop-color="#08B5F7"/>
</linearGradient>
<linearGradient id="paint3_linear_155_4703" x1="45" y1="27.5" x2="47.5" y2="27.5" gradientUnits="userSpaceOnUse">
<stop stop-color="#0568EA"/>
<stop offset="1" stop-color="#08B5F7"/>
</linearGradient>
<linearGradient id="paint4_linear_155_4703" x1="32.5" y1="46.25" x2="59.9999" y2="46.25" gradientUnits="userSpaceOnUse">
<stop stop-color="#0568EA"/>
<stop offset="1" stop-color="#08B5F7"/>
</linearGradient>
<linearGradient id="paint5_linear_155_4703" x1="47.5" y1="50" x2="52.4999" y2="50" gradientUnits="userSpaceOnUse">
<stop stop-color="#0568EA"/>
<stop offset="1" stop-color="#08B5F7"/>
</linearGradient>
<linearGradient id="paint6_linear_155_4703" x1="42.4985" y1="46.2503" x2="49.9992" y2="46.2503" gradientUnits="userSpaceOnUse">
<stop stop-color="#0568EA"/>
<stop offset="1" stop-color="#08B5F7"/>
</linearGradient>
<linearGradient id="paint7_linear_155_4703" x1="35" y1="8.75006" x2="37.5001" y2="8.75006" gradientUnits="userSpaceOnUse">
<stop stop-color="#0568EA"/>
<stop offset="1" stop-color="#08B5F7"/>
</linearGradient>
<linearGradient id="paint8_linear_155_4703" x1="0" y1="25" x2="60" y2="25" gradientUnits="userSpaceOnUse">
<stop stop-color="#0568EA"/>
<stop offset="1" stop-color="#08B5F7"/>
</linearGradient>
<linearGradient id="paint9_linear_155_4703" x1="5" y1="28.7499" x2="12.5" y2="28.7499" gradientUnits="userSpaceOnUse">
<stop stop-color="#0568EA"/>
<stop offset="1" stop-color="#08B5F7"/>
</linearGradient>
<linearGradient id="paint10_linear_155_4703" x1="50" y1="8.75006" x2="52.5001" y2="8.75006" gradientUnits="userSpaceOnUse">
<stop stop-color="#0568EA"/>
<stop offset="1" stop-color="#08B5F7"/>
</linearGradient>
<linearGradient id="paint11_linear_155_4703" x1="5" y1="8.75006" x2="12.5" y2="8.75006" gradientUnits="userSpaceOnUse">
<stop stop-color="#0568EA"/>
<stop offset="1" stop-color="#08B5F7"/>
</linearGradient>
<linearGradient id="paint12_linear_155_4703" x1="50" y1="27.8687" x2="52.5001" y2="27.8687" gradientUnits="userSpaceOnUse">
<stop stop-color="#0568EA"/>
<stop offset="1" stop-color="#08B5F7"/>
</linearGradient>
<linearGradient id="paint13_linear_155_4703" x1="45" y1="8.75006" x2="47.5001" y2="8.75006" gradientUnits="userSpaceOnUse">
<stop stop-color="#0568EA"/>
<stop offset="1" stop-color="#08B5F7"/>
</linearGradient>
<linearGradient id="paint14_linear_155_4703" x1="40" y1="8.75006" x2="42.5001" y2="8.75006" gradientUnits="userSpaceOnUse">
<stop stop-color="#0568EA"/>
<stop offset="1" stop-color="#08B5F7"/>
</linearGradient>
<clipPath id="clip0_155_4703">
<rect width="60" height="60" fill="white"/>
</clipPath>
</defs>
</svg>
