<svg width="60" height="60" viewBox="0 0 60 60" fill="none" xmlns="http://www.w3.org/2000/svg">
<g clip-path="url(#clip0_447_356)">
<path d="M48.75 35C49.1925 35 49.6025 34.7651 49.8275 34.385C50.865 32.6175 60 16.9475 60 11.25C60 5.0475 54.9525 0 48.75 0C42.5475 0 37.5 5.0475 37.5 11.25C37.5 16.9475 46.6325 32.6175 47.6725 34.385C47.8975 34.765 48.3075 35 48.75 35ZM48.75 2.49996C53.575 2.49996 57.5 6.42492 57.5 11.25C57.5 15.02 51.92 25.655 48.75 31.2475C45.58 25.655 40 15.02 40 11.25C40 6.42504 43.925 2.49996 48.75 2.49996Z" fill="url(#paint0_linear_447_356)"/>
<path d="M31.25 40H45.8925C46.5825 40 47.1425 39.4399 47.1425 38.7499C47.1425 38.0599 46.5825 37.5 45.8925 37.5H31.25C30.56 37.5 30 38.06 30 38.75C30 39.44 30.56 40 31.25 40Z" fill="url(#paint1_linear_447_356)"/>
<path d="M55 11.25C55 7.805 52.195 5 48.75 5C45.3051 5 42.5001 7.805 42.5001 11.25C42.5001 14.6949 45.3051 17.4999 48.75 17.4999C52.195 17.4999 55 14.6949 55 11.25ZM45 11.25C45 9.18242 46.6825 7.49996 48.75 7.49996C50.8176 7.49996 52.5 9.18242 52.5 11.25C52.5 13.3175 50.8176 15 48.75 15C46.6825 15 45 13.3175 45 11.25Z" fill="url(#paint2_linear_447_356)"/>
<path d="M51.25 47.5H31.25C30.56 47.5 30 48.06 30 48.75C30 49.44 30.56 50.0001 31.25 50.0001H51.2501C51.9401 50.0001 52.5001 49.44 52.5001 48.75C52.5 48.06 51.94 47.5 51.25 47.5Z" fill="url(#paint3_linear_447_356)"/>
<path d="M5.00006 36.25C5.00006 38.3175 6.68252 40 8.75006 40C10.8176 40 12.5001 38.3175 12.5001 36.25C12.5001 34.1825 10.8176 32.5 8.75006 32.5C6.68252 32.5 5.00006 34.1826 5.00006 36.25ZM9.99998 36.25C9.99998 36.94 9.43994 37.5 8.74994 37.5C8.05994 37.5 7.50002 36.94 7.50002 36.25C7.50002 35.56 8.06006 35 8.75006 35C9.44006 35 9.99998 35.56 9.99998 36.25Z" fill="url(#paint4_linear_447_356)"/>
<path d="M8.75006 47.5C6.68252 47.5 5.00006 49.1825 5.00006 51.25C5.00006 53.3175 6.68252 55 8.75006 55C10.8176 55 12.5001 53.3175 12.5001 51.25C12.5001 49.1826 10.8175 47.5 8.75006 47.5ZM8.75006 52.5C8.06006 52.5 7.50002 51.94 7.50002 51.25C7.50002 50.56 8.06006 50 8.75006 50C9.44006 50 10.0001 50.56 10.0001 51.25C9.99998 51.94 9.44006 52.5 8.75006 52.5Z" fill="url(#paint5_linear_447_356)"/>
<path d="M31.25 35.0001H42.975C43.665 35.0001 44.225 34.44 44.225 33.75C44.225 33.06 43.665 32.5 42.975 32.5H31.25C30.56 32.5 30 33.06 30 33.75C30 34.44 30.56 35.0001 31.25 35.0001Z" fill="url(#paint6_linear_447_356)"/>
<path d="M51.25 52.5H31.25C30.56 52.5 30 53.06 30 53.75C30 54.44 30.56 55.0001 31.25 55.0001H51.2501C51.9401 55.0001 52.5001 54.44 52.5001 53.75C52.5001 53.06 51.94 52.5 51.25 52.5Z" fill="url(#paint7_linear_447_356)"/>
<path d="M57.4725 28.75C56.92 28.3375 56.135 28.4525 55.7225 29.005C55.31 29.56 55.425 30.3425 55.9775 30.755C56.945 31.475 57.5 32.5675 57.5 33.75V38.75C57.5 40.8175 55.8176 42.5 53.75 42.5H6.24996C4.18242 42.5 2.49996 40.8175 2.49996 38.75V33.7501C2.49996 31.6825 4.18242 30.0001 6.24996 30.0001H40.2424C40.9324 30.0001 41.4925 29.44 41.4925 28.75C41.4925 28.06 40.9324 27.5 40.2424 27.5H6.24996C2.805 27.5001 0 30.3051 0 33.7501V38.7501C0 40.8001 1.00746 42.6102 2.54004 43.7502C1.00746 44.89 0 46.7001 0 48.7501V53.7501C0 57.1951 2.805 60.0001 6.24996 60.0001H53.7499C57.195 60.0001 60 57.1951 60 53.7501V48.7501C60 46.7001 58.9925 44.89 57.46 43.75C58.9925 42.61 60 40.8001 60 38.7501V33.7501C60 31.7701 59.0775 29.9476 57.4725 28.75ZM57.5 48.7501V53.7501C57.5 55.8177 55.8176 57.5001 53.75 57.5001H6.24996C4.18242 57.5001 2.49996 55.8177 2.49996 53.7501V48.7501C2.49996 46.6825 4.18242 45.0001 6.24996 45.0001H53.7499C55.8175 45.0001 57.5 46.6825 57.5 48.7501Z" fill="url(#paint8_linear_447_356)"/>
</g>
<defs>
<linearGradient id="paint0_linear_447_356" x1="37.5" y1="17.5" x2="60" y2="17.5" gradientUnits="userSpaceOnUse">
<stop stop-color="#0568EA"/>
<stop offset="1" stop-color="#08B5F7"/>
</linearGradient>
<linearGradient id="paint1_linear_447_356" x1="30" y1="38.75" x2="47.1425" y2="38.75" gradientUnits="userSpaceOnUse">
<stop stop-color="#0568EA"/>
<stop offset="1" stop-color="#08B5F7"/>
</linearGradient>
<linearGradient id="paint2_linear_447_356" x1="42.5001" y1="11.25" x2="55" y2="11.25" gradientUnits="userSpaceOnUse">
<stop stop-color="#0568EA"/>
<stop offset="1" stop-color="#08B5F7"/>
</linearGradient>
<linearGradient id="paint3_linear_447_356" x1="30" y1="48.75" x2="52.5001" y2="48.75" gradientUnits="userSpaceOnUse">
<stop stop-color="#0568EA"/>
<stop offset="1" stop-color="#08B5F7"/>
</linearGradient>
<linearGradient id="paint4_linear_447_356" x1="5.00006" y1="36.25" x2="12.5001" y2="36.25" gradientUnits="userSpaceOnUse">
<stop stop-color="#0568EA"/>
<stop offset="1" stop-color="#08B5F7"/>
</linearGradient>
<linearGradient id="paint5_linear_447_356" x1="5.00006" y1="51.25" x2="12.5001" y2="51.25" gradientUnits="userSpaceOnUse">
<stop stop-color="#0568EA"/>
<stop offset="1" stop-color="#08B5F7"/>
</linearGradient>
<linearGradient id="paint6_linear_447_356" x1="30" y1="33.75" x2="44.225" y2="33.75" gradientUnits="userSpaceOnUse">
<stop stop-color="#0568EA"/>
<stop offset="1" stop-color="#08B5F7"/>
</linearGradient>
<linearGradient id="paint7_linear_447_356" x1="30" y1="53.75" x2="52.5001" y2="53.75" gradientUnits="userSpaceOnUse">
<stop stop-color="#0568EA"/>
<stop offset="1" stop-color="#08B5F7"/>
</linearGradient>
<linearGradient id="paint8_linear_447_356" x1="0" y1="43.75" x2="60" y2="43.75" gradientUnits="userSpaceOnUse">
<stop stop-color="#0568EA"/>
<stop offset="1" stop-color="#08B5F7"/>
</linearGradient>
<clipPath id="clip0_447_356">
<rect width="60" height="60" fill="white"/>
</clipPath>
</defs>
</svg>
