<svg width="40" height="40" viewBox="0 0 40 40" fill="none" xmlns="http://www.w3.org/2000/svg">
<g clip-path="url(#clip0_123_271)">
<path d="M4.16661 28.3335C3.70661 28.3335 3.33325 28.7069 3.33325 29.1669C3.33325 29.6269 3.70661 30.0002 4.16661 30.0002C4.62661 30.0002 4.99997 29.6268 4.99997 29.1668C4.99997 28.7068 4.62661 28.3335 4.16661 28.3335Z" fill="white"/>
<path d="M4.16661 35C3.70661 35 3.33325 35.3734 3.33325 35.8334C3.33325 36.2934 3.70661 36.6667 4.16661 36.6667C4.62661 36.6667 4.99997 36.2934 4.99997 35.8334C4.99997 35.3734 4.62661 35 4.16661 35Z" fill="white"/>
<path d="M7.50003 23.3333C7.96003 23.3333 8.33339 22.96 8.33339 22.4933V14.16C8.33339 12.7816 9.45503 11.66 10.8334 11.66H17.155L16.9117 11.9033C16.5867 12.2283 16.5867 12.7567 16.9117 13.0817C17.2367 13.4067 17.765 13.4067 18.09 13.0817L19.7517 11.42C19.7683 11.4034 19.785 11.385 19.8017 11.3667C19.91 11.2383 19.975 11.085 19.9933 10.9267C19.9983 10.8783 20 10.8283 19.9967 10.78C19.985 10.5867 19.905 10.395 19.7583 10.245C19.7567 10.2434 19.7567 10.2434 19.7567 10.2434L18.09 8.57676C17.765 8.25176 17.2367 8.25176 16.9117 8.57676C16.75 8.74012 16.6683 8.9534 16.6683 9.16676C16.6683 9.38012 16.7483 9.5934 16.9117 9.75676L17.155 10.0001H10.8334C8.53675 10.0001 6.66675 11.8701 6.66675 14.1668V22.5C6.66667 22.96 7.04003 23.3333 7.50003 23.3333Z" fill="white"/>
<path d="M25.8333 35H19.1666C18.7066 35 18.3333 35.3734 18.3333 35.8334C18.3333 36.2934 18.7066 36.6667 19.1666 36.6667H25.8333C26.2933 36.6667 26.6666 36.2934 26.6666 35.8334C26.6666 35.3734 26.2933 35 25.8333 35Z" fill="white"/>
<path d="M37.4999 20.0068C37.0399 20.0068 36.6666 20.3802 36.6666 20.8402V30.8402C36.6666 31.3002 36.2932 31.6736 35.8332 31.6736H34.5116L34.7549 31.4302C35.0799 31.1052 35.0799 30.5768 34.7549 30.2518C34.4299 29.9268 33.9016 29.9268 33.5766 30.2518L31.9149 31.9135C31.8983 31.9301 31.8816 31.9485 31.8649 31.9668C31.7566 32.0952 31.6916 32.2485 31.6733 32.4068C31.6683 32.4552 31.6666 32.5052 31.6699 32.5535C31.6816 32.7468 31.7616 32.9385 31.9083 33.0885C31.9099 33.0901 31.9099 33.0901 31.9099 33.0901L33.5766 34.7568C33.7399 34.9184 33.9532 35.0001 34.1666 35.0001C34.3799 35.0001 34.5932 34.9268 34.7549 34.7635C34.9166 34.6001 34.9983 34.3868 34.9983 34.1735C34.9983 33.9601 34.9183 33.7468 34.7549 33.5835L34.5116 33.3401H35.8332C37.2116 33.3401 38.3332 32.2185 38.3332 30.8401V20.8401C38.3333 20.3802 37.9599 20.0068 37.4999 20.0068Z" fill="white"/>
<path d="M40.0001 9.16664C40.0001 4.11164 35.8885 0 30.8335 0C25.7785 0 21.6667 4.11164 21.6667 9.16664C21.6667 14.2216 25.7784 18.3333 30.8334 18.3333C35.8884 18.3333 40.0001 14.2216 40.0001 9.16664ZM38.3335 9.16664C38.3335 9.83664 37.0551 10.6966 34.8935 11.215C34.9618 10.5366 35.0001 9.85 35.0001 9.16664C35.0001 8.48328 34.9617 7.79664 34.8935 7.11828C37.0551 7.63664 38.3335 8.49664 38.3335 9.16664ZM37.7867 6.39164C36.9034 5.94 35.8167 5.59828 34.6351 5.365C34.4017 4.18336 34.0601 3.09664 33.6085 2.21336C35.5117 2.975 37.0251 4.48836 37.7867 6.39164ZM30.8335 1.66664C31.5035 1.66664 32.3635 2.945 32.8818 5.10664C32.2035 5.03836 31.5167 5 30.8335 5C30.1502 5 29.4635 5.03836 28.7851 5.10664C29.3035 2.945 30.1635 1.66664 30.8335 1.66664ZM23.3335 9.16664C23.3335 8.49664 24.6118 7.63664 26.7735 7.11828C26.7051 7.79664 26.6668 8.48328 26.6668 9.16664C26.6668 9.85 26.7052 10.5366 26.7735 11.215C24.6117 10.6966 23.3335 9.83664 23.3335 9.16664ZM23.8801 11.9416C24.7635 12.3933 25.8501 12.735 27.0317 12.9683C27.2651 14.1499 27.6084 15.2366 28.0584 16.1199C26.1551 15.3584 24.6417 13.8434 23.8801 11.9416ZM27.0317 5.365C25.8501 5.59836 24.7634 5.94 23.8801 6.39164C24.6417 4.48828 26.1567 2.975 28.0585 2.21328C27.6085 3.09664 27.2651 4.18336 27.0317 5.365ZM30.8335 16.6666C30.1635 16.6666 29.3035 15.3883 28.7851 13.2266C29.4635 13.295 30.1501 13.3333 30.8335 13.3333C31.5168 13.3333 32.2035 13.2949 32.8818 13.2266C32.3635 15.3884 31.5035 16.6666 30.8335 16.6666ZM33.1801 11.5134C32.4535 11.6034 31.6835 11.6667 30.8335 11.6667C29.9835 11.6667 29.2135 11.6034 28.4868 11.5134C28.3968 10.7867 28.3335 10.0167 28.3335 9.16672C28.3335 8.31672 28.3968 7.54672 28.4868 6.82008C29.2135 6.73008 29.9835 6.66672 30.8335 6.66672C31.6835 6.66672 32.4535 6.73008 33.1801 6.82008C33.2701 7.54672 33.3335 8.31672 33.3335 9.16672C33.3335 10.0167 33.2701 10.7866 33.1801 11.5134ZM33.6085 16.12C34.0601 15.2366 34.4018 14.15 34.6351 12.9684C35.8167 12.735 36.9035 12.3917 37.7867 11.9417C37.0251 13.8434 35.5117 15.3584 33.6085 16.12Z" fill="white"/>
<path d="M27.5 25H2.5C1.12164 25 0 26.1216 0 27.5V30.8334C0 31.475 0.25 32.0566 0.65 32.5C0.25 32.9434 0 33.525 0 34.1666V37.5C0 38.8784 1.12164 40 2.5 40H27.5C28.8784 40 30 38.8784 30 37.5V34.1666C30 33.525 29.75 32.9433 29.35 32.5C29.75 32.0566 30 31.475 30 30.8334V27.5C30 26.1216 28.8784 25 27.5 25ZM28.3334 37.5C28.3334 37.96 27.96 38.3334 27.5 38.3334H2.5C2.04 38.3334 1.66664 37.96 1.66664 37.5V34.1666C1.66664 33.7066 2.04 33.3333 2.5 33.3333H27.5C27.96 33.3333 28.3334 33.7066 28.3334 34.1666V37.5ZM28.3334 30.8334C28.3334 31.2934 27.96 31.6667 27.5 31.6667H2.5C2.04 31.6667 1.66664 31.2934 1.66664 30.8334V27.5C1.66664 27.04 2.04 26.6666 2.5 26.6666H27.5C27.96 26.6666 28.3334 27.04 28.3334 27.5V30.8334Z" fill="white"/>
<path d="M25.8333 28.3335H19.1666C18.7066 28.3335 18.3333 28.7069 18.3333 29.1669C18.3333 29.6269 18.7066 30.0002 19.1666 30.0002H25.8333C26.2933 30.0002 26.6666 29.6269 26.6666 29.1669C26.6665 28.7068 26.2933 28.3335 25.8333 28.3335Z" fill="white"/>
</g>
<defs>
<clipPath id="clip0_123_271">
<rect width="40" height="40" fill="white"/>
</clipPath>
</defs>
</svg>
