<svg width="50" height="50" viewBox="0 0 50 50" fill="none" xmlns="http://www.w3.org/2000/svg">
<g clip-path="url(#clip0_49_691)">
<path d="M30.2083 27.0835C30.7833 27.0835 31.25 26.6168 31.25 26.0418V21.8752C31.25 21.3002 30.7833 20.8335 30.2083 20.8335C29.6333 20.8335 29.1666 21.3002 29.1666 21.8752V26.0419C29.1667 26.6169 29.6333 27.0835 30.2083 27.0835Z" fill="white"/>
<path d="M38.5417 27.0835C39.1167 27.0835 39.5834 26.6168 39.5834 26.0418V21.8752C39.5834 21.3002 39.1167 20.8335 38.5417 20.8335C37.9667 20.8335 37.5 21.3002 37.5 21.8752V26.0419C37.5 26.6169 37.9667 27.0835 38.5417 27.0835Z" fill="white"/>
<path d="M42.7083 27.0835C43.2833 27.0835 43.75 26.6168 43.75 26.0418V21.8752C43.75 21.3002 43.2833 20.8335 42.7083 20.8335C42.1333 20.8335 41.6666 21.3002 41.6666 21.8752V26.0419C41.6667 26.6169 42.1333 27.0835 42.7083 27.0835Z" fill="white"/>
<path d="M43.648 38.0895C43.473 37.7291 43.1084 37.5 42.7084 37.5H34.375C33.8 37.5 33.3333 37.9667 33.3333 38.5417C33.3333 39.1167 33.8 39.5834 34.375 39.5834H40.5396L33.5604 48.3084C33.3104 48.6209 33.2624 49.048 33.4354 49.4104C33.6104 49.7709 33.9749 50 34.3749 50H42.7082C43.2832 50 43.7499 49.5333 43.7499 48.9583C43.7499 48.3833 43.2832 47.9166 42.7082 47.9166H36.5437L43.5229 39.1916C43.773 38.8792 43.8208 38.452 43.648 38.0895Z" fill="white"/>
<path d="M48.9583 39.5831H46.7375L49.825 34.9519C50.0375 34.6311 50.0583 34.2206 49.877 33.8811C49.6958 33.5436 49.3437 33.3311 48.9583 33.3311H44.7916C44.2166 33.3311 43.7499 33.7978 43.7499 34.3728C43.7499 34.9478 44.2166 35.4145 44.7916 35.4145H47.0124L43.9249 40.0457C43.7124 40.3665 43.6916 40.777 43.8728 41.1165C44.0541 41.454 44.4061 41.6665 44.7916 41.6665H48.9583C49.5333 41.6665 50 41.1998 50 40.6248C50 40.0498 49.5333 39.5831 48.9583 39.5831Z" fill="white"/>
<path d="M34.375 27.0835C34.95 27.0835 35.4166 26.6168 35.4166 26.0418V21.8752C35.4166 21.3002 34.95 20.8335 34.375 20.8335C33.8 20.8335 33.3333 21.3002 33.3333 21.8752V26.0419C33.3333 26.6169 33.8 27.0835 34.375 27.0835Z" fill="white"/>
<path d="M42.7083 4.1665C42.1333 4.1665 41.6666 4.6332 41.6666 5.2082V9.3748C41.6666 9.9498 42.1333 10.4165 42.7083 10.4165C43.2833 10.4165 43.75 9.9498 43.75 9.3748V5.20811C43.75 4.63311 43.2833 4.1665 42.7083 4.1665Z" fill="white"/>
<path d="M4.16675 23.9585C4.16675 25.6814 5.5688 27.0835 7.29175 27.0835C9.0147 27.0835 10.4167 25.6814 10.4167 23.9585C10.4167 22.2355 9.0147 20.8335 7.29175 20.8335C5.5688 20.8335 4.16675 22.2356 4.16675 23.9585ZM7.29175 22.9169C7.86675 22.9169 8.33345 23.3856 8.33345 23.9586C8.33345 24.5315 7.86675 25.0003 7.29175 25.0003C6.71675 25.0003 6.25005 24.5314 6.25005 23.9585C6.25005 23.3856 6.71675 22.9169 7.29175 22.9169Z" fill="white"/>
<path d="M38.5417 4.1665C37.9667 4.1665 37.5 4.6332 37.5 5.2082V9.3748C37.5 9.9498 37.9667 10.4165 38.5417 10.4165C39.1167 10.4165 39.5834 9.9498 39.5834 9.3748V5.20811C39.5833 4.63311 39.1167 4.1665 38.5417 4.1665Z" fill="white"/>
<path d="M44.7917 14.5833C47.6625 14.5833 50 12.2479 50 9.375V5.2083C50 2.33545 47.6625 0 44.7917 0H5.2083C2.3375 0 0 2.33545 0 5.2083V9.375C0 12.2479 2.3375 14.5833 5.2083 14.5833H18.75V16.6666H5.2083C2.3375 16.6667 0 19.0021 0 21.875V26.0417C0 28.9146 2.3375 31.25 5.2083 31.25H18.75V33.3333H17.7083C17.1333 33.3333 16.6666 33.8 16.6666 34.375V35.4167H15.625C15.05 35.4167 14.5833 35.8834 14.5833 36.4584V37.5H5.2083C4.6333 37.5 4.1666 37.9667 4.1666 38.5417C4.1666 39.1167 4.6333 39.5834 5.2083 39.5834H14.5833V40.625C14.5833 41.2 15.05 41.6667 15.625 41.6667H23.9583C24.5333 41.6667 25 41.2 25 40.625V39.5833H30.2083C30.7833 39.5833 31.25 39.1166 31.25 38.5416C31.25 37.9666 30.7833 37.5 30.2083 37.5H25V36.4583C25 35.8833 24.5333 35.4166 23.9583 35.4166H22.9166V34.375C22.9166 33.8 22.4499 33.3333 21.8749 33.3333H20.8332V31.25H44.7915C47.6625 31.25 50 28.9146 50 26.0417V21.875C50 19.0021 47.6625 16.6667 44.7917 16.6667H20.8333V14.5834H44.7917V14.5833ZM21.875 37.5H22.9167V39.5833H16.6667V37.5H17.7084C18.2834 37.5 18.7501 37.0333 18.7501 36.4583V35.4166H20.8334V36.4583C20.8333 37.0333 21.3 37.5 21.875 37.5ZM44.7917 18.75C46.5146 18.75 47.9167 20.1521 47.9167 21.875V26.0417C47.9167 27.7646 46.5146 29.1667 44.7917 29.1667H5.2083C3.48535 29.1667 2.0833 27.7646 2.0833 26.0417V21.875C2.0833 20.1521 3.48535 18.75 5.2083 18.75H44.7917ZM5.2083 12.5C3.48535 12.5 2.0833 11.0979 2.0833 9.375V5.2083C2.0833 3.48535 3.48535 2.0833 5.2083 2.0833H44.7916C46.5145 2.0833 47.9166 3.48535 47.9166 5.2083V9.375C47.9166 11.0979 46.5145 12.5 44.7916 12.5H5.2083Z" fill="white"/>
<path d="M34.375 4.1665C33.8 4.1665 33.3333 4.6332 33.3333 5.2082V9.3748C33.3333 9.9498 33.8 10.4165 34.375 10.4165C34.95 10.4165 35.4166 9.9498 35.4166 9.3748V5.20811C35.4166 4.63311 34.95 4.1665 34.375 4.1665Z" fill="white"/>
<path d="M7.29175 4.1665C5.5688 4.1665 4.16675 5.56855 4.16675 7.2915C4.16675 9.01445 5.5688 10.4165 7.29175 10.4165C9.0147 10.4165 10.4167 9.01445 10.4167 7.2915C10.4167 5.56855 9.0146 4.1665 7.29175 4.1665ZM7.29175 8.33311C6.71675 8.33311 6.25005 7.86436 6.25005 7.29141C6.25005 6.71855 6.71675 6.2498 7.29175 6.2498C7.86675 6.2498 8.33345 6.71855 8.33345 7.2915C8.33335 7.86436 7.86675 8.33311 7.29175 8.33311Z" fill="white"/>
<path d="M30.2083 4.1665C29.6333 4.1665 29.1666 4.6332 29.1666 5.2082V9.3748C29.1666 9.9498 29.6333 10.4165 30.2083 10.4165C30.7833 10.4165 31.25 9.9498 31.25 9.3748V5.20811C31.25 4.63311 30.7833 4.1665 30.2083 4.1665Z" fill="white"/>
</g>
<defs>
<clipPath id="clip0_49_691">
<rect width="50" height="50" fill="white"/>
</clipPath>
</defs>
</svg>
