<svg width="60" height="60" viewBox="0 0 60 60" fill="none" xmlns="http://www.w3.org/2000/svg">
<path d="M36.25 27.5C35.56 27.5 35 28.06 35 28.75C35 29.44 35.56 30 36.25 30C36.94 30 37.5001 29.4399 37.5001 28.7499C37.5001 28.0599 36.94 27.5 36.25 27.5Z" fill="url(#paint0_linear_49_501)"/>
<path d="M8.75 22.5C6.68246 22.5 5 24.1825 5 26.25C5 28.3175 6.68246 30 8.75 30C10.8175 30 12.5 28.3175 12.5 26.25C12.5 24.1825 10.8174 22.5 8.75 22.5ZM8.75 27.5C8.06246 27.5 7.49996 26.94 7.49996 26.25C7.49996 25.56 8.06246 25 8.75 25C9.43754 25 10 25.56 10 26.25C10 26.94 9.43742 27.5 8.75 27.5Z" fill="url(#paint1_linear_49_501)"/>
<path d="M20.3649 52.1348C20.6099 52.3773 20.9298 52.4998 21.2499 52.4998C21.5699 52.4998 21.8898 52.3774 22.1324 52.1348L23.75 50.5198L25.3649 52.1348C25.61 52.3773 25.9299 52.4998 26.2499 52.4998C26.57 52.4998 26.8899 52.3774 27.1325 52.1348C27.62 51.6473 27.62 50.8548 27.1325 50.3673L25.5174 48.7498L27.1323 47.1349C27.6198 46.6474 27.6198 45.8548 27.1323 45.3673C26.6448 44.8798 25.8523 44.8798 25.3648 45.3673L23.7498 46.9823L22.1349 45.3673C21.6474 44.8798 20.8548 44.8798 20.3673 45.3673C19.8798 45.8548 19.8798 46.6474 20.3673 47.1349L21.98 48.7498L20.365 50.3648C19.8774 50.8549 19.8774 51.6473 20.3649 52.1348Z" fill="url(#paint2_linear_49_501)"/>
<path d="M40.3651 52.1348C40.6101 52.3773 40.93 52.4998 41.2501 52.4998C41.5701 52.4998 41.89 52.3774 42.1326 52.1348L43.7476 50.5198L45.3625 52.1348C45.61 52.3773 45.9301 52.4998 46.25 52.4998C46.5699 52.4998 46.8899 52.3774 47.1325 52.1348C47.62 51.6473 47.62 50.8548 47.1325 50.3673L45.5176 48.7498L47.1325 47.1349C47.62 46.6474 47.62 45.8548 47.1325 45.3673C46.645 44.8798 45.8525 44.8798 45.365 45.3673L43.75 46.9823L42.1351 45.3673C41.6476 44.8798 40.855 44.8798 40.3675 45.3673C39.88 45.8548 39.88 46.6474 40.3675 47.1349L41.9826 48.7498L40.3676 50.3648C39.8776 50.8549 39.8776 51.6473 40.3651 52.1348Z" fill="url(#paint3_linear_49_501)"/>
<path d="M41.25 27.5C40.56 27.5 40 28.06 40 28.75C40 29.44 40.56 30 41.25 30C41.94 30 42.5001 29.4399 42.5001 28.7499C42.5001 28.0599 41.94 27.5 41.25 27.5Z" fill="url(#paint4_linear_49_501)"/>
<path d="M30.3651 52.1348C30.6101 52.3773 30.93 52.4998 31.2501 52.4998C31.5701 52.4998 31.89 52.3774 32.1326 52.1348L33.7476 50.5198L35.3625 52.1348C35.61 52.3773 35.9301 52.4998 36.25 52.4998C36.57 52.4998 36.89 52.3774 37.1325 52.1348C37.62 51.6473 37.62 50.8548 37.1325 50.3673L35.5176 48.7498L37.1325 47.1349C37.62 46.6474 37.62 45.8548 37.1325 45.3673C36.645 44.8798 35.8525 44.8798 35.365 45.3673L33.75 46.9823L32.1351 45.3673C31.6476 44.8798 30.855 44.8798 30.3675 45.3673C29.88 45.8548 29.88 46.6474 30.3675 47.1349L31.9825 48.7498L30.3675 50.3648C29.8776 50.8549 29.8776 51.6473 30.3651 52.1348Z" fill="url(#paint5_linear_49_501)"/>
<path d="M10.3649 45.3673C9.87739 45.8548 9.87739 46.6474 10.3649 47.1349L11.9799 48.7498L10.3649 50.3648C9.87739 50.8523 9.87739 51.6448 10.3649 52.1323C10.6099 52.3774 10.9299 52.4998 11.2499 52.4998C11.5699 52.4998 11.8899 52.3774 12.1324 52.1348L13.75 50.5198L15.3649 52.1348C15.61 52.3773 15.9299 52.4998 16.2499 52.4998C16.57 52.4998 16.8899 52.3774 17.1325 52.1348C17.62 51.6473 17.62 50.8548 17.1325 50.3673L15.5174 48.7498L17.1324 47.1349C17.6199 46.6474 17.6199 45.8548 17.1324 45.3673C16.6449 44.8798 15.8523 44.8798 15.3648 45.3673L13.7499 46.9823L12.1349 45.3673C11.6449 44.8798 10.8524 44.8798 10.3649 45.3673Z" fill="url(#paint6_linear_49_501)"/>
<path d="M41.25 12.5C40.56 12.5 40 13.06 40 13.75C40 14.44 40.56 15 41.25 15C41.94 15 42.5001 14.4399 42.5001 13.7499C42.5001 13.0599 41.94 12.5 41.25 12.5Z" fill="url(#paint7_linear_49_501)"/>
<path d="M46.25 12.5C45.56 12.5 45 13.06 45 13.75C45 14.44 45.56 15 46.25 15C46.94 15 47.5001 14.4399 47.5001 13.7499C47.5001 13.0599 46.94 12.5 46.25 12.5Z" fill="url(#paint8_linear_49_501)"/>
<path d="M51.25 12.5C50.56 12.5 50 13.06 50 13.75C50 14.44 50.56 15 51.25 15C51.94 15 52.5001 14.4399 52.5001 13.7499C52.5001 13.0599 51.94 12.5 51.25 12.5Z" fill="url(#paint9_linear_49_501)"/>
<path d="M60 13.7499V8.74996C60 5.305 57.1975 2.5 53.75 2.5H6.24996C2.80254 2.49988 0 5.30488 0 8.74996V13.75C0 15.8 1.00746 17.6099 2.53746 18.7499C1.00746 19.8899 0 21.6999 0 23.75V28.75C0 32.195 2.80254 35 6.24996 35H27.4999V40H11.25C7.80246 40 5.00004 42.805 5.00004 46.25V51.25C5.00004 54.695 7.80258 57.5 11.25 57.5H46.25C49.6976 57.5 52.5 54.695 52.5 51.25V46.25C52.5 42.805 49.6975 40 46.25 40H30V35H53.75C57.1976 35 60 32.195 60 28.75V23.75C60 21.7 58.9925 19.8899 57.4625 18.7499C58.9925 17.6099 60 15.8 60 13.7499ZM46.25 42.5C48.3176 42.5 50 44.1824 50 46.25V51.25C50 53.3175 48.3176 55 46.25 55H11.25C9.18246 55 7.5 53.3175 7.5 51.25V46.25C7.5 44.1824 9.18246 42.5 11.25 42.5H46.25ZM57.5 23.75V28.75C57.5 30.8175 55.8176 32.5 53.75 32.5H6.24996C4.18242 32.5 2.49996 30.8175 2.49996 28.75V23.75C2.49996 21.6824 4.18242 20 6.24996 20H53.7499C55.8175 20 57.5 21.6824 57.5 23.75ZM57.5 13.7499C57.5 15.8174 55.8176 17.4999 53.75 17.4999H6.24996C4.18242 17.4999 2.49996 15.8174 2.49996 13.7499V8.74996C2.49996 6.68242 4.18242 4.99996 6.24996 4.99996H53.7499C55.8175 4.99996 57.4999 6.68242 57.4999 8.74996V13.7499H57.5Z" fill="url(#paint10_linear_49_501)"/>
<path d="M46.25 27.5C45.56 27.5 45 28.06 45 28.75C45 29.44 45.56 30 46.25 30C46.94 30 47.5001 29.4399 47.5001 28.7499C47.5001 28.0599 46.94 27.5 46.25 27.5Z" fill="url(#paint11_linear_49_501)"/>
<path d="M51.25 27.5C50.56 27.5 50 28.06 50 28.75C50 29.44 50.56 30 51.25 30C51.94 30 52.5001 29.4399 52.5001 28.7499C52.5001 28.0599 51.94 27.5 51.25 27.5Z" fill="url(#paint12_linear_49_501)"/>
<path d="M36.25 12.5C35.56 12.5 35 13.06 35 13.75C35 14.44 35.56 15 36.25 15C36.94 15 37.5001 14.4399 37.5001 13.7499C37.5001 13.0599 36.94 12.5 36.25 12.5Z" fill="url(#paint13_linear_49_501)"/>
<path d="M8.75 7.5C6.68246 7.5 5 9.18246 5 11.25C5 13.3175 6.68246 15 8.75 15C10.8175 15 12.5 13.3175 12.5 11.25C12.5 9.18246 10.8174 7.5 8.75 7.5ZM8.75 12.5C8.06246 12.5 7.49996 11.94 7.49996 11.25C7.49996 10.56 8.06246 9.99996 8.75 9.99996C9.43754 9.99996 10 10.56 10 11.25C10 11.94 9.43742 12.5 8.75 12.5Z" fill="url(#paint14_linear_49_501)"/>
<defs>
<linearGradient id="paint0_linear_49_501" x1="35" y1="28.75" x2="37.5001" y2="28.75" gradientUnits="userSpaceOnUse">
<stop stop-color="#0568EA"/>
<stop offset="1" stop-color="#08B5F7"/>
</linearGradient>
<linearGradient id="paint1_linear_49_501" x1="5" y1="26.25" x2="12.5" y2="26.25" gradientUnits="userSpaceOnUse">
<stop stop-color="#0568EA"/>
<stop offset="1" stop-color="#08B5F7"/>
</linearGradient>
<linearGradient id="paint2_linear_49_501" x1="19.9993" y1="48.7508" x2="27.4981" y2="48.7508" gradientUnits="userSpaceOnUse">
<stop stop-color="#0568EA"/>
<stop offset="1" stop-color="#08B5F7"/>
</linearGradient>
<linearGradient id="paint3_linear_49_501" x1="39.9998" y1="48.7508" x2="47.4981" y2="48.7508" gradientUnits="userSpaceOnUse">
<stop stop-color="#0568EA"/>
<stop offset="1" stop-color="#08B5F7"/>
</linearGradient>
<linearGradient id="paint4_linear_49_501" x1="40" y1="28.75" x2="42.5001" y2="28.75" gradientUnits="userSpaceOnUse">
<stop stop-color="#0568EA"/>
<stop offset="1" stop-color="#08B5F7"/>
</linearGradient>
<linearGradient id="paint5_linear_49_501" x1="29.9998" y1="48.7508" x2="37.4982" y2="48.7508" gradientUnits="userSpaceOnUse">
<stop stop-color="#0568EA"/>
<stop offset="1" stop-color="#08B5F7"/>
</linearGradient>
<linearGradient id="paint6_linear_49_501" x1="9.99927" y1="48.7508" x2="17.4981" y2="48.7508" gradientUnits="userSpaceOnUse">
<stop stop-color="#0568EA"/>
<stop offset="1" stop-color="#08B5F7"/>
</linearGradient>
<linearGradient id="paint7_linear_49_501" x1="40" y1="13.75" x2="42.5001" y2="13.75" gradientUnits="userSpaceOnUse">
<stop stop-color="#0568EA"/>
<stop offset="1" stop-color="#08B5F7"/>
</linearGradient>
<linearGradient id="paint8_linear_49_501" x1="45" y1="13.75" x2="47.5001" y2="13.75" gradientUnits="userSpaceOnUse">
<stop stop-color="#0568EA"/>
<stop offset="1" stop-color="#08B5F7"/>
</linearGradient>
<linearGradient id="paint9_linear_49_501" x1="50" y1="13.75" x2="52.5001" y2="13.75" gradientUnits="userSpaceOnUse">
<stop stop-color="#0568EA"/>
<stop offset="1" stop-color="#08B5F7"/>
</linearGradient>
<linearGradient id="paint10_linear_49_501" x1="0" y1="30" x2="60" y2="30" gradientUnits="userSpaceOnUse">
<stop stop-color="#0568EA"/>
<stop offset="1" stop-color="#08B5F7"/>
</linearGradient>
<linearGradient id="paint11_linear_49_501" x1="45" y1="28.75" x2="47.5001" y2="28.75" gradientUnits="userSpaceOnUse">
<stop stop-color="#0568EA"/>
<stop offset="1" stop-color="#08B5F7"/>
</linearGradient>
<linearGradient id="paint12_linear_49_501" x1="50" y1="28.75" x2="52.5001" y2="28.75" gradientUnits="userSpaceOnUse">
<stop stop-color="#0568EA"/>
<stop offset="1" stop-color="#08B5F7"/>
</linearGradient>
<linearGradient id="paint13_linear_49_501" x1="35" y1="13.75" x2="37.5001" y2="13.75" gradientUnits="userSpaceOnUse">
<stop stop-color="#0568EA"/>
<stop offset="1" stop-color="#08B5F7"/>
</linearGradient>
<linearGradient id="paint14_linear_49_501" x1="5" y1="11.25" x2="12.5" y2="11.25" gradientUnits="userSpaceOnUse">
<stop stop-color="#0568EA"/>
<stop offset="1" stop-color="#08B5F7"/>
</linearGradient>
</defs>
</svg>
