<svg width="60" height="60" viewBox="0 0 60 60" fill="none" xmlns="http://www.w3.org/2000/svg">
<g clip-path="url(#clip0_46_314)">
<path d="M38.7486 52.4993H28.749C28.059 52.4993 27.499 53.0593 27.499 53.7493C27.499 54.4392 28.059 54.9992 28.749 54.9992H38.7486C39.4385 54.9992 39.9986 54.4392 39.9986 53.7493C39.9986 53.0593 39.4385 52.4993 38.7486 52.4993Z" fill="white"/>
<path d="M6.24974 52.4993C5.55731 52.4993 4.99976 53.0593 4.99976 53.7493C4.99976 54.4417 5.55719 54.9992 6.24974 54.9992C6.94218 54.9992 7.49973 54.4418 7.49973 53.7493C7.49973 53.0592 6.93972 52.4993 6.24974 52.4993Z" fill="white"/>
<path d="M13.7494 34.9999C14.4394 34.9999 14.9994 34.4399 14.9994 33.7424V21.243C14.9994 19.1755 16.6818 17.4932 18.7492 17.4932H28.2339L27.8688 17.8582C27.3814 18.3457 27.3814 19.1382 27.8688 19.6256C28.3563 20.1131 29.1488 20.1131 29.6363 19.6256L32.1287 17.1333C32.1536 17.1083 32.1787 17.0808 32.2037 17.0533C32.3662 16.8607 32.4637 16.6308 32.4911 16.3933C32.5011 16.3183 32.5037 16.2433 32.4986 16.1733C32.4812 15.8833 32.3612 15.5958 32.1411 15.3709C32.1386 15.3709 32.1386 15.3709 32.1386 15.3709C32.1386 15.3709 32.1386 15.3709 32.1362 15.3709C32.1362 15.3684 32.1337 15.3684 32.1337 15.3684L29.6338 12.8685C29.1464 12.3811 28.3539 12.3811 27.8664 12.8685C27.6239 13.1136 27.5014 13.4335 27.5014 13.7535C27.5014 14.0735 27.6214 14.3934 27.8664 14.6385L28.2314 15.0009H18.7492C15.3018 15.0009 12.4995 17.8058 12.4995 21.2506V33.7501C12.4995 34.44 13.0594 34.9999 13.7494 34.9999Z" fill="white"/>
<path d="M6.24974 42.4995C5.55731 42.4995 4.99976 43.0595 4.99976 43.7495C4.99976 44.4419 5.55719 44.9995 6.24974 44.9995C6.94218 44.9995 7.49973 44.442 7.49973 43.7495C7.49973 43.0595 6.93972 42.4995 6.24974 42.4995Z" fill="white"/>
<path d="M41.2483 37.4998H3.74985C1.68239 37.4998 0 39.1821 0 41.2496V46.2494C0 47.2119 0.374985 48.0844 0.97496 48.7493C0.374985 49.4168 0 50.2867 0 51.2492V56.249C0 58.3164 1.68239 59.9988 3.74985 59.9988H41.2483C43.3158 59.9988 44.9982 58.3164 44.9982 56.249V51.2492C44.9982 50.2867 44.6232 49.4142 44.0232 48.7493C44.6232 48.0843 44.9982 47.2119 44.9982 46.2494V41.2496C44.9982 39.1821 43.3158 37.4998 41.2483 37.4998ZM42.4983 56.249C42.4983 56.939 41.9358 57.499 41.2483 57.499H3.74985C3.06234 57.499 2.49986 56.939 2.49986 56.249V51.2492C2.49986 50.5592 3.06234 49.9992 3.74985 49.9992H41.2483C41.9358 49.9992 42.4983 50.5592 42.4983 51.2492V56.249ZM42.4983 46.2493C42.4983 46.9393 41.9358 47.4993 41.2483 47.4993H3.74985C3.06234 47.4993 2.49986 46.9393 2.49986 46.2493V41.2495C2.49986 40.5595 3.06234 39.9995 3.74985 39.9995H41.2483C41.9358 39.9995 42.4983 40.5595 42.4983 41.2495V46.2493Z" fill="white"/>
<path d="M54.8377 19.6355L51.0853 18.6981L50.9279 18.0706C51.9004 16.9957 52.5928 15.6232 52.8802 14.1983C53.5477 13.8533 54.0302 13.1983 54.1302 12.4109L54.4002 10.236C54.4827 9.57599 54.2802 8.91098 53.8428 8.41108C53.7078 8.25863 53.5527 8.12363 53.3878 8.01114L53.4502 6.68369L53.6777 6.45624C54.3226 5.77131 55.1951 4.30887 53.8151 2.19887C53.1602 1.19638 51.8102 0.00146484 49.1053 0.00146484C48.3103 0.00146484 46.5129 0.00146484 44.768 1.09642C39.6232 1.27887 39.0182 4.0513 39.0182 6.14371C39.0182 6.5562 39.0932 7.32866 39.1632 7.97364C38.9782 8.09117 38.8082 8.23613 38.6607 8.40358C38.2158 8.90852 38.0107 9.57599 38.0958 10.2385L38.3658 12.4135C38.4683 13.2259 38.9858 13.9009 39.7482 14.2334C40.0281 15.5959 40.6832 16.9159 41.5955 17.9632L41.4131 18.6982L37.6608 19.6357C34.6234 20.3956 32.4985 23.1155 32.4985 26.2504C32.4985 26.5828 32.6285 26.9029 32.8636 27.1354C33.0986 27.3678 33.4161 27.5004 33.7485 27.5004L58.75 27.4953C59.44 27.4953 60 26.9353 60 26.2453C59.9999 23.1128 57.8775 20.393 54.8377 19.6355ZM35.181 24.9978C35.6109 23.5729 36.7634 22.438 38.2733 22.0579L42.7531 20.938C43.2006 20.8255 43.5505 20.4755 43.663 20.0281L44.1955 17.8957C44.3055 17.4557 44.1679 16.9907 43.8355 16.6808C42.863 15.7658 42.218 14.4284 42.113 13.1034C42.0605 12.456 41.5055 12.096 40.8531 12.096L40.5306 10.1061C40.8906 10.1061 41.2305 9.95367 41.4681 9.68369C41.7056 9.41616 41.8155 9.05875 41.7705 8.70123C41.6755 7.94622 41.523 6.58127 41.523 6.14137C41.523 4.84638 41.523 3.62393 45.1778 3.58644C45.4328 3.58397 45.6828 3.50394 45.8928 3.35394C47.0802 2.50144 48.4526 2.50144 49.1101 2.50144C50.4025 2.50144 51.2575 2.84889 51.7275 3.5664C52.235 4.3439 52.0275 4.56386 51.8875 4.71631L51.345 5.25875C51.1251 5.4787 50.995 5.77119 50.98 6.08125L50.8475 8.80364C50.8325 9.14359 50.8724 9.38112 51.1049 9.62861C51.3399 9.8761 51.5799 9.92614 51.9199 9.9286L51.76 11.961C51.1075 11.961 50.5675 12.461 50.515 13.1109C50.405 14.4584 49.7126 15.8558 48.7076 16.7582C48.3651 17.0657 48.2177 17.5407 48.3302 17.9907L48.8401 20.033C48.9526 20.4805 49.3001 20.833 49.7501 20.943L54.2298 22.0629C55.7348 22.4403 56.8847 23.5753 57.3147 25.0027L35.181 24.9978Z" fill="white"/>
<path d="M56.2478 30C55.5578 30 54.9978 30.56 54.9978 31.25V46.2494C54.9978 46.9393 54.4353 47.4994 53.7478 47.4994H51.7654L52.1279 47.1444C52.6154 46.6569 52.6154 45.8644 52.1279 45.3769C51.6404 44.8895 50.8479 44.8895 50.3604 45.3769L47.8681 47.8693C47.8431 47.8943 47.818 47.9218 47.7931 47.9493C47.6305 48.1419 47.533 48.3718 47.5056 48.6093C47.4957 48.6819 47.4931 48.7568 47.4981 48.8293C47.5156 49.1193 47.6356 49.4067 47.8556 49.6317C47.8581 49.6317 47.8581 49.6317 47.8581 49.6317C47.8581 49.6317 47.8581 49.6317 47.8606 49.6317C47.8606 49.6342 47.863 49.6342 47.863 49.6342L50.3629 52.1341C50.6079 52.3765 50.9278 52.4991 51.2478 52.4991C51.5679 52.4991 51.8878 52.3791 52.1303 52.1341C52.3728 51.889 52.4954 51.5691 52.4954 51.2491C52.4954 50.9291 52.3754 50.6092 52.1303 50.3641L51.7653 49.9991H53.7477C55.8152 49.9991 57.4975 48.3167 57.4975 46.2493V31.2499C57.4978 30.5599 56.9378 30 56.2478 30Z" fill="white"/>
<path d="M38.7486 42.4995H28.749C28.059 42.4995 27.499 43.0595 27.499 43.7495C27.499 44.4395 28.059 44.9995 28.749 44.9995H38.7486C39.4385 44.9995 39.9986 44.4395 39.9986 43.7495C39.9984 43.0595 39.4385 42.4995 38.7486 42.4995Z" fill="white"/>
</g>
<defs>
<clipPath id="clip0_46_314">
<rect width="60" height="60" fill="white"/>
</clipPath>
</defs>
</svg>
