<svg width="50" height="50" viewBox="0 0 50 50" fill="none" xmlns="http://www.w3.org/2000/svg">
<g clip-path="url(#clip0_49_657)">
<path d="M43.7499 21.8752C43.7499 21.3002 43.2832 20.8335 42.7082 20.8335C42.1332 20.8335 41.6665 21.3002 41.6665 21.8752V21.9647C41.6665 22.5397 42.1332 22.9605 42.7082 22.9605C43.2832 22.9606 43.7499 22.4502 43.7499 21.8752Z" fill="white"/>
<path d="M35.4166 26.0419V21.8752C35.4166 21.3002 34.95 20.8335 34.375 20.8335C33.8 20.8335 33.3333 21.3002 33.3333 21.8752V26.0419C33.3333 26.6169 33.8 27.0836 34.375 27.0836C34.95 27.0835 35.4166 26.6169 35.4166 26.0419Z" fill="white"/>
<path d="M43.7499 33.3333C46.0479 33.3333 47.9166 31.4645 47.9166 29.1666C47.9166 26.8687 46.0479 25 43.7499 25C41.452 25 39.5832 26.8687 39.5832 29.1667C39.5832 29.2959 39.6103 29.4187 39.6207 29.5459L29.8665 34.4229C29.129 33.7521 28.1582 33.3334 27.0832 33.3334C24.7853 33.3334 22.9165 35.2021 22.9165 37.5001C22.9165 39.798 24.7853 41.6668 27.0832 41.6668C28.1582 41.6668 29.129 41.248 29.8687 40.5772L39.6229 45.4543C39.6104 45.5813 39.5833 45.7043 39.5833 45.8335C39.5832 48.1312 41.452 50 43.7499 50C46.0479 50 47.9166 48.1313 47.9166 45.8333C47.9166 43.5354 46.0479 41.6666 43.7499 41.6666C42.3291 41.6666 41.0749 42.3833 40.3207 43.4729L31.0145 38.8187C31.1562 38.4021 31.2499 37.9646 31.2499 37.5C31.2499 37.0354 31.1562 36.5958 31.0145 36.1792L40.3207 31.5271C41.0729 32.6167 42.3291 33.3333 43.7499 33.3333ZM43.7499 27.0833C44.8979 27.0833 45.8332 28.0187 45.8332 29.1666C45.8332 30.3145 44.8978 31.2499 43.7499 31.2499C42.602 31.2499 41.6666 30.3145 41.6666 29.1666C41.6666 28.0187 42.602 27.0833 43.7499 27.0833ZM27.0832 39.5833C25.9354 39.5833 24.9999 38.6479 24.9999 37.5C24.9999 36.3521 25.9354 35.4167 27.0832 35.4167C28.2312 35.4167 29.1665 36.3521 29.1665 37.5C29.1666 38.6479 28.2312 39.5833 27.0832 39.5833ZM43.7499 43.75C44.8979 43.75 45.8332 44.6854 45.8332 45.8333C45.8332 46.9813 44.8978 47.9166 43.7499 47.9166C42.602 47.9166 41.6666 46.9812 41.6666 45.8333C41.6666 44.6854 42.602 43.75 43.7499 43.75Z" fill="white"/>
<path d="M39.5833 24.1085V21.8752C39.5833 21.3002 39.1166 20.8335 38.5416 20.8335C37.9666 20.8335 37.5 21.3002 37.5 21.8752V24.1085C37.5 24.6835 37.9667 25.1502 38.5417 25.1502C39.1167 25.1502 39.5833 24.6856 39.5833 24.1085Z" fill="white"/>
<path d="M42.7082 4.1665C42.1332 4.1665 41.6665 4.6332 41.6665 5.2082V9.3748C41.6665 9.9498 42.1332 10.4165 42.7082 10.4165C43.2832 10.4165 43.7499 9.9498 43.7499 9.3748V5.20811C43.7499 4.63311 43.2832 4.1665 42.7082 4.1665Z" fill="white"/>
<path d="M29.1667 21.8752V26.0419C29.1667 26.6169 29.6334 27.0836 30.2084 27.0836C30.7834 27.0836 31.25 26.6169 31.25 26.0419V21.8752C31.25 21.3002 30.7834 20.8335 30.2084 20.8335C29.6334 20.8335 29.1667 21.3002 29.1667 21.8752Z" fill="white"/>
<path d="M7.29175 4.1665C5.5688 4.1665 4.16675 5.56855 4.16675 7.2915C4.16675 9.01445 5.5688 10.4165 7.29175 10.4165C9.0147 10.4165 10.4167 9.01445 10.4167 7.2915C10.4167 5.56855 9.0146 4.1665 7.29175 4.1665ZM7.29175 8.33311C6.71675 8.33311 6.25005 7.8665 6.25005 7.2915C6.25005 6.7165 6.71675 6.2498 7.29175 6.2498C7.86675 6.2498 8.33345 6.7165 8.33345 7.2915C8.33345 7.8665 7.86675 8.33311 7.29175 8.33311Z" fill="white"/>
<path d="M4.16675 23.9585C4.16675 25.6814 5.5688 27.0835 7.29175 27.0835C9.0147 27.0835 10.4167 25.6814 10.4167 23.9585C10.4167 22.2355 9.0147 20.8335 7.29175 20.8335C5.5688 20.8335 4.16675 22.2356 4.16675 23.9585ZM8.33335 23.9585C8.33335 24.5335 7.86665 25.0002 7.29165 25.0002C6.71665 25.0002 6.25005 24.5335 6.25005 23.9585C6.25005 23.3835 6.71675 22.9168 7.29175 22.9168C7.86675 22.9168 8.33335 23.3835 8.33335 23.9585Z" fill="white"/>
<path d="M44.7917 14.5833C47.6625 14.5833 50 12.2458 50 9.375V5.2083C50 2.3375 47.6625 0 44.7917 0H5.2083C2.3375 0 0 2.3375 0 5.2083V9.375C0 12.2458 2.3375 14.5833 5.2083 14.5833H18.75V16.6666H5.2083C2.3375 16.6667 0 19.0042 0 21.875V26.0417C0 28.9125 2.3375 31.25 5.2083 31.25H18.75V33.3333H17.7083C17.1333 33.3333 16.6666 33.8 16.6666 34.375V35.4167H15.625C15.05 35.4167 14.5833 35.8834 14.5833 36.4584V37.5H5.2083C4.6333 37.5 4.1666 37.9667 4.1666 38.5417C4.1666 39.1167 4.6333 39.5834 5.2083 39.5834H14.5833V40.625C14.5833 41.2 15.05 41.6667 15.625 41.6667H20.5229C21.0979 41.6667 21.5646 41.2 21.5646 40.625C21.5646 40.05 21.0979 39.5833 20.5229 39.5833H16.6667V37.5H17.7084C18.2834 37.5 18.7501 37.0333 18.7501 36.4583V35.4166H20.523C21.098 35.4166 21.5647 34.9499 21.5647 34.3749C21.5647 33.9104 21.2543 33.5291 20.8335 33.3957V31.25H31.3064C31.8835 31.25 32.3481 30.7833 32.3481 30.2083C32.3481 29.6333 31.8814 29.1666 31.3064 29.1666H5.2083C3.48535 29.1666 2.0833 27.7645 2.0833 26.0416V21.875C2.0833 20.1521 3.48535 18.75 5.2083 18.75H44.7916C46.5145 18.75 47.9166 20.1521 47.9166 21.875V24.0792C47.9166 24.6542 48.3833 25.1209 48.9583 25.1209C49.5333 25.1209 50 24.6542 50 24.0792V21.875C50 19.0042 47.6625 16.6667 44.7917 16.6667H20.8333V14.5834H44.7917V14.5833ZM5.2083 12.5C3.48535 12.5 2.0833 11.0979 2.0833 9.375V5.2083C2.0833 3.48535 3.48535 2.0833 5.2083 2.0833H44.7916C46.5145 2.0833 47.9166 3.48535 47.9166 5.2083V9.375C47.9166 11.0979 46.5145 12.5 44.7916 12.5H5.2083Z" fill="white"/>
<path d="M30.2082 4.1665C29.6332 4.1665 29.1665 4.6332 29.1665 5.2082V9.3748C29.1665 9.9498 29.6332 10.4165 30.2082 10.4165C30.7832 10.4165 31.2499 9.9498 31.2499 9.3748V5.20811C31.2499 4.63311 30.7832 4.1665 30.2082 4.1665Z" fill="white"/>
<path d="M38.5417 4.1665C37.9667 4.1665 37.5 4.6332 37.5 5.2082V9.3748C37.5 9.9498 37.9667 10.4165 38.5417 10.4165C39.1167 10.4165 39.5834 9.9498 39.5834 9.3748V5.20811C39.5833 4.63311 39.1167 4.1665 38.5417 4.1665Z" fill="white"/>
<path d="M34.375 4.1665C33.8 4.1665 33.3333 4.6332 33.3333 5.2082V9.3748C33.3333 9.9498 33.8 10.4165 34.375 10.4165C34.95 10.4165 35.4166 9.9498 35.4166 9.3748V5.20811C35.4166 4.63311 34.95 4.1665 34.375 4.1665Z" fill="white"/>
</g>
<defs>
<clipPath id="clip0_49_657">
<rect width="50" height="50" fill="white"/>
</clipPath>
</defs>
</svg>
