<svg width="60" height="60" viewBox="0 0 60 60" fill="none" xmlns="http://www.w3.org/2000/svg">
<path d="M38.7486 52.4991H28.749C28.059 52.4991 27.499 53.0592 27.499 53.7491C27.499 54.4391 28.059 54.9991 28.749 54.9991H38.7486C39.4385 54.9991 39.9986 54.4391 39.9986 53.7491C39.9986 53.0592 39.4385 52.4991 38.7486 52.4991Z" fill="url(#paint0_linear_167_12962)"/>
<path d="M6.24999 52.4991C5.55756 52.4991 5 53.0592 5 53.7491C5 54.4416 5.55744 54.9991 6.24999 54.9991C6.94242 54.9991 7.49998 54.4417 7.49998 53.7491C7.49998 53.059 6.93996 52.4991 6.24999 52.4991Z" fill="url(#paint1_linear_167_12962)"/>
<path d="M13.7499 34.9998C14.4398 34.9998 14.9999 34.4398 14.9999 33.7423V21.2429C14.9999 19.1754 16.6823 17.493 18.7497 17.493H28.2344L27.8693 17.8581C27.3819 18.3455 27.3819 19.138 27.8693 19.6255C28.3568 20.113 29.1493 20.113 29.6368 19.6255L32.1292 17.1332C32.1541 17.1082 32.1792 17.0807 32.2042 17.0531C32.3667 16.8606 32.4642 16.6307 32.4916 16.3932C32.5016 16.3182 32.5041 16.2432 32.4991 16.1732C32.4816 15.8832 32.3616 15.5957 32.1416 15.3707C32.1391 15.3707 32.1391 15.3707 32.1391 15.3707C32.1391 15.3707 32.1391 15.3707 32.1367 15.3707C32.1367 15.3683 32.1342 15.3683 32.1342 15.3683L29.6343 12.8684C29.1469 12.3809 28.3543 12.3809 27.8669 12.8684C27.6244 13.1134 27.5018 13.4334 27.5018 13.7534C27.5018 14.0734 27.6218 14.3933 27.8669 14.6383L28.2319 15.0008H18.7497C15.3023 15.0008 12.5 17.8057 12.5 21.2505V33.75C12.5 34.4399 13.0599 34.9998 13.7499 34.9998Z" fill="url(#paint2_linear_167_12962)"/>
<path d="M6.24999 42.4995C5.55756 42.4995 5 43.0595 5 43.7495C5 44.4419 5.55744 44.9995 6.24999 44.9995C6.94242 44.9995 7.49998 44.442 7.49998 43.7495C7.49998 43.0595 6.93996 42.4995 6.24999 42.4995Z" fill="url(#paint3_linear_167_12962)"/>
<path d="M41.2483 37.4998H3.74985C1.68239 37.4998 0 39.1821 0 41.2496V46.2494C0 47.2119 0.374985 48.0844 0.97496 48.7493C0.374985 49.4168 0 50.2867 0 51.2492V56.249C0 58.3164 1.68239 59.9988 3.74985 59.9988H41.2483C43.3158 59.9988 44.9982 58.3164 44.9982 56.249V51.2492C44.9982 50.2867 44.6232 49.4142 44.0232 48.7493C44.6232 48.0843 44.9982 47.2119 44.9982 46.2494V41.2496C44.9982 39.1821 43.3158 37.4998 41.2483 37.4998ZM42.4983 56.249C42.4983 56.939 41.9358 57.499 41.2483 57.499H3.74985C3.06234 57.499 2.49986 56.939 2.49986 56.249V51.2492C2.49986 50.5592 3.06234 49.9992 3.74985 49.9992H41.2483C41.9358 49.9992 42.4983 50.5592 42.4983 51.2492V56.249ZM42.4983 46.2493C42.4983 46.9393 41.9358 47.4993 41.2483 47.4993H3.74985C3.06234 47.4993 2.49986 46.9393 2.49986 46.2493V41.2495C2.49986 40.5595 3.06234 39.9995 3.74985 39.9995H41.2483C41.9358 39.9995 42.4983 40.5595 42.4983 41.2495V46.2493Z" fill="url(#paint4_linear_167_12962)"/>
<path d="M54.8381 19.6355L51.0858 18.6981L50.9283 18.0706C51.9008 16.9957 52.5933 15.6232 52.8807 14.1983C53.5482 13.8533 54.0306 13.1983 54.1307 12.4109L54.4007 10.236C54.4832 9.57599 54.2807 8.91098 53.8433 8.41108C53.7083 8.25863 53.5532 8.12363 53.3882 8.01114L53.4507 6.68369L53.6782 6.45624C54.3231 5.77131 55.1956 4.30887 53.8156 2.19887C53.1607 1.19638 51.8107 0.00146484 49.1058 0.00146484C48.3108 0.00146484 46.5134 0.00146484 44.7685 1.09642C39.6237 1.27887 39.0187 4.0513 39.0187 6.14371C39.0187 6.5562 39.0937 7.32866 39.1637 7.97364C38.9786 8.09117 38.8087 8.23613 38.6612 8.40358C38.2162 8.90852 38.0112 9.57599 38.0963 10.2385L38.3662 12.4135C38.4688 13.2259 38.9863 13.9009 39.7486 14.2334C40.0286 15.5959 40.6836 16.9159 41.596 17.9632L41.4136 18.6982L37.6613 19.6357C34.6239 20.3956 32.499 23.1155 32.499 26.2504C32.499 26.5828 32.629 26.9029 32.864 27.1354C33.0991 27.3678 33.4166 27.5004 33.749 27.5004L58.7505 27.4953C59.4405 27.4953 60.0005 26.9353 60.0005 26.2453C60.0004 23.1128 57.878 20.393 54.8381 19.6355ZM35.1815 24.9978C35.6114 23.5729 36.7639 22.438 38.2738 22.0579L42.7536 20.938C43.2011 20.8255 43.551 20.4755 43.6635 20.0281L44.196 17.8957C44.306 17.4557 44.1684 16.9907 43.836 16.6808C42.8635 15.7658 42.2185 14.4284 42.1135 13.1034C42.061 12.456 41.506 12.096 40.8536 12.096L40.5311 10.1061C40.8911 10.1061 41.231 9.95367 41.4685 9.68369C41.7061 9.41616 41.816 9.05875 41.771 8.70123C41.676 7.94622 41.5235 6.58127 41.5235 6.14137C41.5235 4.84638 41.5235 3.62393 45.1783 3.58644C45.4333 3.58397 45.6832 3.50394 45.8932 3.35394C47.0807 2.50144 48.4531 2.50144 49.1106 2.50144C50.403 2.50144 51.258 2.84889 51.728 3.5664C52.2355 4.3439 52.028 4.56386 51.888 4.71631L51.3455 5.25875C51.1256 5.4787 50.9955 5.77119 50.9805 6.08125L50.848 8.80364C50.833 9.14359 50.8729 9.38112 51.1054 9.62861C51.3404 9.8761 51.5803 9.92614 51.9204 9.9286L51.7605 11.961C51.108 11.961 50.568 12.461 50.5155 13.1109C50.4055 14.4584 49.713 15.8558 48.7081 16.7582C48.3656 17.0657 48.2181 17.5407 48.3306 17.9907L48.8406 20.033C48.9531 20.4805 49.3006 20.833 49.7505 20.943L54.2303 22.0629C55.7353 22.4403 56.8852 23.5753 57.3152 25.0027L35.1815 24.9978Z" fill="url(#paint5_linear_167_12962)"/>
<path d="M56.2473 30.0001C55.5573 30.0001 54.9973 30.5601 54.9973 31.2501V46.2495C54.9973 46.9395 54.4348 47.4995 53.7473 47.4995H51.7649L52.1274 47.1445C52.6149 46.6571 52.6149 45.8646 52.1274 45.3771C51.6399 44.8896 50.8474 44.8896 50.3599 45.3771L47.8676 47.8694C47.8426 47.8944 47.8175 47.9219 47.7926 47.9495C47.63 48.142 47.5325 48.3719 47.5051 48.6094C47.4952 48.682 47.4926 48.757 47.4976 48.8294C47.5151 49.1194 47.6351 49.4069 47.8551 49.6319C47.8576 49.6319 47.8576 49.6319 47.8576 49.6319C47.8576 49.6319 47.8576 49.6319 47.8601 49.6319C47.8601 49.6343 47.8625 49.6343 47.8625 49.6343L50.3624 52.1342C50.6074 52.3766 50.9273 52.4992 51.2474 52.4992C51.5674 52.4992 51.8873 52.3792 52.1299 52.1342C52.3723 51.8891 52.4949 51.5692 52.4949 51.2492C52.4949 50.9292 52.3749 50.6093 52.1299 50.3642L51.7648 49.9992H53.7472C55.8147 49.9992 57.4971 48.3168 57.4971 46.2494V31.25C57.4973 30.56 56.9373 30.0001 56.2473 30.0001Z" fill="url(#paint6_linear_167_12962)"/>
<path d="M38.7486 42.4995H28.749C28.059 42.4995 27.499 43.0595 27.499 43.7495C27.499 44.4395 28.059 44.9995 28.749 44.9995H38.7486C39.4385 44.9995 39.9986 44.4395 39.9986 43.7495C39.9984 43.0595 39.4385 42.4995 38.7486 42.4995Z" fill="url(#paint7_linear_167_12962)"/>
<defs>
<linearGradient id="paint0_linear_167_12962" x1="27.499" y1="53.7491" x2="39.9986" y2="53.7491" gradientUnits="userSpaceOnUse">
<stop stop-color="#0568EA"/>
<stop offset="1" stop-color="#08B5F7"/>
</linearGradient>
<linearGradient id="paint1_linear_167_12962" x1="5" y1="53.7491" x2="7.49998" y2="53.7491" gradientUnits="userSpaceOnUse">
<stop stop-color="#0568EA"/>
<stop offset="1" stop-color="#08B5F7"/>
</linearGradient>
<linearGradient id="paint2_linear_167_12962" x1="12.5" y1="23.7513" x2="32.5016" y2="23.7513" gradientUnits="userSpaceOnUse">
<stop stop-color="#0568EA"/>
<stop offset="1" stop-color="#08B5F7"/>
</linearGradient>
<linearGradient id="paint3_linear_167_12962" x1="5" y1="43.7495" x2="7.49998" y2="43.7495" gradientUnits="userSpaceOnUse">
<stop stop-color="#0568EA"/>
<stop offset="1" stop-color="#08B5F7"/>
</linearGradient>
<linearGradient id="paint4_linear_167_12962" x1="0" y1="48.7493" x2="44.9982" y2="48.7493" gradientUnits="userSpaceOnUse">
<stop stop-color="#0568EA"/>
<stop offset="1" stop-color="#08B5F7"/>
</linearGradient>
<linearGradient id="paint5_linear_167_12962" x1="32.499" y1="13.7509" x2="60.0005" y2="13.7509" gradientUnits="userSpaceOnUse">
<stop stop-color="#0568EA"/>
<stop offset="1" stop-color="#08B5F7"/>
</linearGradient>
<linearGradient id="paint6_linear_167_12962" x1="47.4951" y1="41.2497" x2="57.4971" y2="41.2497" gradientUnits="userSpaceOnUse">
<stop stop-color="#0568EA"/>
<stop offset="1" stop-color="#08B5F7"/>
</linearGradient>
<linearGradient id="paint7_linear_167_12962" x1="27.499" y1="43.7495" x2="39.9986" y2="43.7495" gradientUnits="userSpaceOnUse">
<stop stop-color="#0568EA"/>
<stop offset="1" stop-color="#08B5F7"/>
</linearGradient>
</defs>
</svg>
