<svg width="60" height="60" viewBox="0 0 60 60" fill="none" xmlns="http://www.w3.org/2000/svg">
<g clip-path="url(#clip0_49_866)">
<path d="M45 42.5C45 41.12 43.8801 40 42.5001 40C41.1201 40 40.0001 41.12 40.0001 42.5C40.0001 43.88 41.1201 44.9999 42.5001 44.9999C43.8801 44.9999 45 43.88 45 42.5Z" fill="url(#paint0_linear_49_866)"/>
<path d="M37.5 31.2501V26.25C37.5 25.56 36.9399 25 36.2499 25C35.5599 25 34.9999 25.56 34.9999 26.25V31.2501C34.9999 31.9401 35.5599 32.5001 36.2499 32.5001C36.9399 32.5001 37.5 31.9401 37.5 31.2501Z" fill="url(#paint1_linear_49_866)"/>
<path d="M42.5001 29.4876V26.25C42.5001 25.56 41.94 25 41.25 25C40.56 25 40 25.56 40 26.25V29.4876C40 30.1776 40.56 30.7376 41.25 30.7376C41.94 30.7375 42.5001 30.1776 42.5001 29.4876Z" fill="url(#paint2_linear_49_866)"/>
<path d="M47.5 28.75V26.25C47.5 25.56 46.9399 25 46.2499 25C45.5599 25 45 25.56 45 26.25V28.75C45 29.44 45.56 30 46.25 30C46.94 30 47.5 29.44 47.5 28.75Z" fill="url(#paint3_linear_49_866)"/>
<path d="M46.2501 32.5C38.67 32.5 32.5001 38.6675 32.5001 46.25C32.5001 53.8325 38.67 60 46.2501 60C53.8301 60 60 53.8326 60 46.2501C60 38.6676 53.83 32.5 46.2501 32.5ZM46.2501 57.5001C40.0476 57.5001 35.0001 52.4526 35.0001 46.2501C35.0001 40.0476 40.0476 35.0001 46.2501 35.0001C52.4526 35.0001 57.5001 40.0476 57.5001 46.2501C57.5001 52.4526 52.4526 57.5001 46.2501 57.5001Z" fill="url(#paint4_linear_49_866)"/>
<path d="M50.0001 47.5C48.6201 47.5 47.5001 48.62 47.5001 50C47.5001 51.38 48.6201 52.5 50.0001 52.5C51.3801 52.5 52.5 51.3801 52.5 50.0001C52.5 48.6201 51.3801 47.5 50.0001 47.5Z" fill="url(#paint5_linear_49_866)"/>
<path d="M49.3075 40.1304C48.69 39.8254 47.94 40.0729 47.63 40.6905L42.6299 50.6904C42.3224 51.3079 42.5724 52.0579 43.19 52.368C43.3724 52.458 43.5625 52.5005 43.75 52.5005C44.2075 52.5005 44.6475 52.248 44.8675 51.808L49.8675 41.8081C50.175 41.1904 49.9251 40.4404 49.3075 40.1304Z" fill="url(#paint6_linear_49_866)"/>
<path d="M36.2499 5C35.5599 5 34.9999 5.56004 34.9999 6.25004V11.25C34.9999 11.94 35.5599 12.5 36.2499 12.5C36.9399 12.5 37.5 11.94 37.5 11.25V6.24992C37.5 5.55992 36.9399 5 36.2499 5Z" fill="url(#paint7_linear_49_866)"/>
<path d="M53.75 17.5C57.1975 17.5 60 14.695 60 11.25V6.24996C60 2.805 57.1975 0 53.75 0H6.24996C2.80254 0 0 2.805 0 6.24996V11.25C0 14.695 2.80254 17.5 6.24996 17.5H22.5V19.9999H6.24996C2.80254 20 0 22.805 0 26.25V31.25C0 34.695 2.80254 37.5 6.24996 37.5H22.5V40H21.25C20.56 40 19.9999 40.56 19.9999 41.25V42.5H18.75C18.06 42.5 17.5 43.0601 17.5 43.7501V45H6.24996C5.55996 45 4.99992 45.56 4.99992 46.25C4.99992 46.94 5.55996 47.5001 6.24996 47.5001H17.5V48.75C17.5 49.44 18.06 50 18.75 50H28.75C29.44 50 30 49.44 30 48.75V43.75C30 43.06 29.44 42.4999 28.75 42.4999H27.4999V41.25C27.4999 40.56 26.9399 40 26.2499 40H24.9998V37.5H31.9098C32.5998 37.5 33.1598 36.94 33.1598 36.25C33.1598 35.56 32.5998 34.9999 31.9098 34.9999H6.24996C4.18242 34.9999 2.49996 33.3175 2.49996 31.2499V26.25C2.49996 24.1825 4.18242 22.5 6.24996 22.5H53.7499C55.8175 22.5 57.4999 24.1825 57.4999 26.25V31.25C57.4999 31.815 57.3574 32.3801 57.0775 32.9325C56.7649 33.5475 57.0124 34.3 57.6274 34.6125C58.2475 34.9275 58.9949 34.68 59.3099 34.0625C59.7674 33.1575 59.9999 32.21 59.9999 31.25V26.25C59.9999 22.805 57.1973 20 53.7499 20H25V17.5001H53.75V17.5ZM26.25 45H27.5V47.5H20V45H21.2501C21.9401 45 22.5001 44.44 22.5001 43.75V42.4999H25.0001V43.75C25 44.44 25.56 45 26.25 45ZM6.24996 15C4.18242 15 2.49996 13.3175 2.49996 11.25V6.24996C2.49996 4.18242 4.18242 2.49996 6.24996 2.49996H53.7499C55.8175 2.49996 57.4999 4.18242 57.4999 6.24996V11.25C57.4999 13.3175 55.8175 15 53.7499 15H6.24996Z" fill="url(#paint8_linear_49_866)"/>
<path d="M5 28.75C5 30.8175 6.68246 32.5 8.75 32.5C10.8175 32.5 12.5 30.8175 12.5 28.75C12.5 26.6825 10.8175 25 8.75 25C6.68246 25 5 26.6826 5 28.75ZM9.99992 28.75C9.99992 29.44 9.43742 30 8.74988 30C8.06246 30 7.49996 29.44 7.49996 28.75C7.49996 28.06 8.06246 27.5 8.75 27.5C9.43742 27.5001 9.99992 28.06 9.99992 28.75Z" fill="url(#paint9_linear_49_866)"/>
<path d="M51.2499 5C50.5599 5 49.9999 5.56004 49.9999 6.25004V11.25C49.9999 11.94 50.5599 12.5 51.2499 12.5C51.9399 12.5 52.5 11.94 52.5 11.25V6.24992C52.5 5.55992 51.9399 5 51.2499 5Z" fill="url(#paint10_linear_49_866)"/>
<path d="M8.75 5C6.68246 5 5 6.68246 5 8.75C5 10.8175 6.68246 12.5 8.75 12.5C10.8175 12.5 12.5 10.8175 12.5 8.75C12.5 6.68246 10.8174 5 8.75 5ZM8.75 9.99992C8.06246 9.99992 7.49996 9.44 7.49996 8.75C7.49996 8.06 8.06246 7.49996 8.75 7.49996C9.43754 7.49996 10 8.06 10 8.75C10 9.44 9.43742 9.99992 8.75 9.99992Z" fill="url(#paint11_linear_49_866)"/>
<path d="M52.5 29.4876V26.25C52.5 25.56 51.9399 25 51.2499 25C50.5599 25 49.9999 25.56 49.9999 26.25V29.4876C49.9999 30.1776 50.5599 30.7376 51.2499 30.7376C51.9399 30.7375 52.5 30.1776 52.5 29.4876Z" fill="url(#paint12_linear_49_866)"/>
<path d="M46.25 5C45.56 5 45 5.56004 45 6.25004V11.25C45 11.94 45.56 12.5 46.25 12.5C46.94 12.5 47.5001 11.94 47.5001 11.25V6.24992C47.5 5.55992 46.94 5 46.25 5Z" fill="url(#paint13_linear_49_866)"/>
<path d="M41.25 5C40.56 5 40 5.56004 40 6.25004V11.25C40 11.94 40.56 12.5 41.25 12.5C41.94 12.5 42.5001 11.94 42.5001 11.25V6.24992C42.5001 5.55992 41.94 5 41.25 5Z" fill="url(#paint14_linear_49_866)"/>
</g>
<defs>
<linearGradient id="paint0_linear_49_866" x1="40.0001" y1="42.5" x2="45" y2="42.5" gradientUnits="userSpaceOnUse">
<stop stop-color="#0568EA"/>
<stop offset="1" stop-color="#08B5F7"/>
</linearGradient>
<linearGradient id="paint1_linear_49_866" x1="34.9999" y1="28.7501" x2="37.5" y2="28.7501" gradientUnits="userSpaceOnUse">
<stop stop-color="#0568EA"/>
<stop offset="1" stop-color="#08B5F7"/>
</linearGradient>
<linearGradient id="paint2_linear_49_866" x1="40" y1="27.8688" x2="42.5001" y2="27.8688" gradientUnits="userSpaceOnUse">
<stop stop-color="#0568EA"/>
<stop offset="1" stop-color="#08B5F7"/>
</linearGradient>
<linearGradient id="paint3_linear_49_866" x1="45" y1="27.5" x2="47.5" y2="27.5" gradientUnits="userSpaceOnUse">
<stop stop-color="#0568EA"/>
<stop offset="1" stop-color="#08B5F7"/>
</linearGradient>
<linearGradient id="paint4_linear_49_866" x1="32.5001" y1="46.25" x2="60" y2="46.25" gradientUnits="userSpaceOnUse">
<stop stop-color="#0568EA"/>
<stop offset="1" stop-color="#08B5F7"/>
</linearGradient>
<linearGradient id="paint5_linear_49_866" x1="47.5001" y1="50" x2="52.5" y2="50" gradientUnits="userSpaceOnUse">
<stop stop-color="#0568EA"/>
<stop offset="1" stop-color="#08B5F7"/>
</linearGradient>
<linearGradient id="paint6_linear_49_866" x1="42.4984" y1="46.2503" x2="49.999" y2="46.2503" gradientUnits="userSpaceOnUse">
<stop stop-color="#0568EA"/>
<stop offset="1" stop-color="#08B5F7"/>
</linearGradient>
<linearGradient id="paint7_linear_49_866" x1="34.9999" y1="8.75" x2="37.5" y2="8.75" gradientUnits="userSpaceOnUse">
<stop stop-color="#0568EA"/>
<stop offset="1" stop-color="#08B5F7"/>
</linearGradient>
<linearGradient id="paint8_linear_49_866" x1="0" y1="25" x2="60" y2="25" gradientUnits="userSpaceOnUse">
<stop stop-color="#0568EA"/>
<stop offset="1" stop-color="#08B5F7"/>
</linearGradient>
<linearGradient id="paint9_linear_49_866" x1="5" y1="28.75" x2="12.5" y2="28.75" gradientUnits="userSpaceOnUse">
<stop stop-color="#0568EA"/>
<stop offset="1" stop-color="#08B5F7"/>
</linearGradient>
<linearGradient id="paint10_linear_49_866" x1="49.9999" y1="8.75" x2="52.5" y2="8.75" gradientUnits="userSpaceOnUse">
<stop stop-color="#0568EA"/>
<stop offset="1" stop-color="#08B5F7"/>
</linearGradient>
<linearGradient id="paint11_linear_49_866" x1="5" y1="8.75" x2="12.5" y2="8.75" gradientUnits="userSpaceOnUse">
<stop stop-color="#0568EA"/>
<stop offset="1" stop-color="#08B5F7"/>
</linearGradient>
<linearGradient id="paint12_linear_49_866" x1="49.9999" y1="27.8688" x2="52.5" y2="27.8688" gradientUnits="userSpaceOnUse">
<stop stop-color="#0568EA"/>
<stop offset="1" stop-color="#08B5F7"/>
</linearGradient>
<linearGradient id="paint13_linear_49_866" x1="45" y1="8.75" x2="47.5001" y2="8.75" gradientUnits="userSpaceOnUse">
<stop stop-color="#0568EA"/>
<stop offset="1" stop-color="#08B5F7"/>
</linearGradient>
<linearGradient id="paint14_linear_49_866" x1="40" y1="8.75" x2="42.5001" y2="8.75" gradientUnits="userSpaceOnUse">
<stop stop-color="#0568EA"/>
<stop offset="1" stop-color="#08B5F7"/>
</linearGradient>
<clipPath id="clip0_49_866">
<rect width="60" height="60" fill="white"/>
</clipPath>
</defs>
</svg>
