<svg width="60" height="60" viewBox="0 0 60 60" fill="none" xmlns="http://www.w3.org/2000/svg">
<g clip-path="url(#clip0_46_268)">
<path d="M43.75 52.5H33.75C33.06 52.5 32.5 53.06 32.5 53.75C32.5 54.44 33.06 55.0001 33.75 55.0001H43.75C44.44 55.0001 45 54.44 45 53.75C45 53.06 44.44 52.5 43.75 52.5Z" fill="white"/>
<path d="M6.25004 52.5C5.56004 52.5 5 53.06 5 53.75C5 54.44 5.56004 55.0001 6.25004 55.0001C6.94004 55.0001 7.50008 54.44 7.50008 53.75C7.50008 53.06 6.94004 52.5 6.25004 52.5Z" fill="white"/>
<path d="M58.75 0H13.75C13.06 0 12.5 0.560039 12.5 1.25004V33.75C12.5 34.44 13.06 35 13.75 35C14.44 35 15.0001 34.44 15.0001 33.75V2.49996H57.5001V40H53.7501C53.0601 40 52.5001 40.56 52.5001 41.25C52.5001 41.94 53.0601 42.5 53.7501 42.5H58.7502C59.4402 42.5 60.0002 41.94 60.0002 41.25V1.25004C60.0001 0.560039 59.44 0 58.75 0Z" fill="white"/>
<path d="M43.75 42.5H33.75C33.06 42.5 32.5 43.06 32.5 43.75C32.5 44.44 33.06 45.0001 33.75 45.0001H43.75C44.44 45.0001 45 44.44 45 43.75C45 43.0599 44.44 42.5 43.75 42.5Z" fill="white"/>
<path d="M52.0326 7.77752C51.4926 7.35002 50.7101 7.43252 50.2751 7.97252L41.3451 19.1376L39.7926 16.8101C39.5526 16.4501 39.1376 16.2276 38.7076 16.2551C38.275 16.2676 37.8801 16.5076 37.6651 16.8826L33.6676 23.8751L29.7901 18.0576C29.5525 17.7026 29.1625 17.5001 28.72 17.5001C28.2901 17.5126 27.8975 17.7401 27.6775 18.1076L20.1775 30.6076C19.8226 31.2001 20.015 31.9676 20.6075 32.3227C20.8075 32.4427 21.03 32.5002 21.25 32.5002C21.6725 32.5002 22.0876 32.2852 22.3175 31.8952L28.8025 21.0877L32.7076 26.9452C32.9476 27.3027 33.3351 27.5326 33.7926 27.5002C34.2251 27.4876 34.6201 27.2476 34.8351 26.8726L38.8326 19.8802L40.2101 21.9477C40.4327 22.2802 40.8002 22.4852 41.1977 22.5027C41.5702 22.5202 41.9777 22.3452 42.2276 22.0352L52.2276 9.53521C52.6576 8.99498 52.5726 8.21005 52.0326 7.77752Z" fill="white"/>
<path d="M46.25 37.5H3.75C1.68246 37.5 0 39.1825 0 41.25V46.25C0 47.2125 0.375 48.085 0.975 48.75C0.375 49.415 0 50.2875 0 51.25V56.25C0 58.3175 1.68246 60 3.75 60H46.25C48.3176 60 50 58.3175 50 56.25V51.25C50 50.2875 49.625 49.4149 49.025 48.75C49.625 48.085 50 47.2125 50 46.25V41.25C50 39.1825 48.3175 37.5 46.25 37.5ZM47.5 56.25C47.5 56.94 46.9375 57.5 46.2499 57.5H3.75C3.06246 57.5 2.49996 56.94 2.49996 56.25V51.25C2.49996 50.56 3.06246 49.9999 3.75 49.9999H46.25C46.9376 49.9999 47.5001 50.56 47.5001 51.25V56.25H47.5ZM47.5 46.25C47.5 46.94 46.9375 47.5001 46.2499 47.5001H3.75C3.06246 47.5001 2.49996 46.94 2.49996 46.25V41.25C2.49996 40.56 3.06246 40 3.75 40H46.25C46.9376 40 47.5001 40.56 47.5001 41.25V46.25H47.5Z" fill="white"/>
<path d="M6.25004 42.5C5.56004 42.5 5 43.06 5 43.75C5 44.44 5.56004 45.0001 6.25004 45.0001C6.94004 45.0001 7.50008 44.4399 7.50008 43.7499C7.50008 43.0599 6.94004 42.5 6.25004 42.5Z" fill="white"/>
</g>
<defs>
<clipPath id="clip0_46_268">
<rect width="60" height="60" fill="white"/>
</clipPath>
</defs>
</svg>
