<svg width="60" height="60" viewBox="0 0 60 60" fill="none" xmlns="http://www.w3.org/2000/svg">
<path d="M47.5 28.75V26.25C47.5 25.56 46.9399 25 46.2499 25C45.5599 25 45 25.56 45 26.25V28.75C45 29.44 45.56 30 46.25 30C46.94 30 47.5 29.44 47.5 28.75Z" fill="url(#paint0_linear_101_168)"/>
<path d="M42.5001 29.4876V26.25C42.5001 25.56 41.94 25 41.25 25C40.56 25 40 25.56 40 26.25V29.4876C40 30.1776 40.56 30.7376 41.25 30.7376C41.94 30.7375 42.5001 30.1776 42.5001 29.4876Z" fill="url(#paint1_linear_101_168)"/>
<path d="M45.375 52.8758C45.125 53.1008 45 53.4257 45 53.7508C45 54.0759 45.125 54.4008 45.375 54.6258C45.6 54.8758 45.925 55.0008 46.25 55.0008C46.5751 55.0008 46.9001 54.8758 47.1251 54.6258C47.375 54.4008 47.5001 54.0759 47.5001 53.7508C47.5001 53.4257 47.375 53.1008 47.1251 52.8758C46.65 52.4008 45.85 52.4008 45.375 52.8758Z" fill="url(#paint2_linear_101_168)"/>
<path d="M37.5001 31.2501V26.25C37.5001 25.56 36.94 25 36.25 25C35.56 25 35 25.56 35 26.25V31.2501C35 31.9401 35.56 32.5001 36.25 32.5001C36.94 32.5001 37.5001 31.9401 37.5001 31.2501Z" fill="url(#paint3_linear_101_168)"/>
<path d="M46.2501 37.5C42.915 37.5 40.23 39.5 40.0076 42.155C39.9501 42.8426 40.4601 43.4475 41.1476 43.505C41.8301 43.58 42.4401 43.0526 42.4976 42.365C42.6051 41.06 44.2901 40.0001 46.2476 40.0001C48.2801 40.0001 50.0001 41.1451 50.0001 42.5C50.0001 43.7175 48.8151 44.505 46.2726 44.975L46.0001 45.0275C45.4201 45.1475 45.0026 45.6575 45.0026 46.25L45 48.75C45 49.4375 45.5575 50 46.2501 50C46.9401 50 47.5001 49.4426 47.5001 48.75L47.5051 47.27C50.8226 46.49 52.5026 44.8875 52.5026 42.5C52.5025 39.7425 49.6975 37.5 46.2501 37.5Z" fill="url(#paint4_linear_101_168)"/>
<path d="M46.25 32.5C38.6675 32.5 32.5 38.6675 32.5 46.25C32.5 53.8325 38.6675 60 46.25 60C53.8325 60 59.9999 53.8326 59.9999 46.2501C59.9999 38.6676 53.8325 32.5 46.25 32.5ZM46.25 57.5001C40.0475 57.5001 35 52.4526 35 46.2501C35 40.0476 40.0475 35.0001 46.25 35.0001C52.4525 35.0001 57.5 40.0476 57.5 46.2501C57.5 52.4526 52.4525 57.5001 46.25 57.5001Z" fill="url(#paint5_linear_101_168)"/>
<path d="M51.25 5C50.56 5 50 5.56004 50 6.25004V11.25C50 11.94 50.56 12.5 51.25 12.5C51.94 12.5 52.5001 11.94 52.5001 11.25V6.24992C52.5001 5.55992 51.94 5 51.25 5Z" fill="url(#paint6_linear_101_168)"/>
<path d="M53.75 17.5C57.195 17.5 60 14.695 60 11.25V6.24996C60 2.805 57.195 0 53.75 0H6.24996C2.805 0 0 2.805 0 6.24996V11.25C0 14.695 2.805 17.5 6.24996 17.5H22.5V19.9999H6.24996C2.805 20 0 22.805 0 26.25V31.25C0 34.695 2.805 37.5 6.24996 37.5H22.5V40H21.25C20.56 40 19.9999 40.56 19.9999 41.25V42.5H18.75C18.06 42.5 17.5 43.0601 17.5 43.7501V45H6.24996C5.55996 45 4.99992 45.56 4.99992 46.25C4.99992 46.94 5.55996 47.5001 6.24996 47.5001H17.5V48.75C17.5 49.44 18.06 50 18.75 50H28.75C29.44 50 30 49.44 30 48.75V43.75C30 43.06 29.44 42.4999 28.75 42.4999H27.4999V41.25C27.4999 40.56 26.9399 40 26.2499 40H24.9998V37.5H31.9098C32.5998 37.5 33.1573 36.94 33.1573 36.25C33.1573 35.56 32.5972 34.9999 31.9072 34.9999H6.2475C4.17996 34.9999 2.4975 33.3175 2.4975 31.2499V26.25C2.4975 24.1825 4.17996 22.5 6.2475 22.5H53.7475C55.815 22.5 57.4975 24.1825 57.4975 26.25V31.25C57.4975 31.815 57.3574 32.3801 57.0775 32.9325C56.7675 33.55 57.0124 34.3 57.63 34.6125C58.25 34.925 58.9975 34.6775 59.31 34.06C59.7675 33.1549 60 32.2075 60 31.2499V26.25C60 22.805 57.195 20 53.75 20H25V17.5001H53.75V17.5ZM26.25 45H27.5V47.5H20V45H21.2501C21.9401 45 22.5001 44.44 22.5001 43.75V42.4999H25.0001V43.75C25 44.44 25.56 45 26.25 45ZM6.24996 15C4.18242 15 2.49996 13.3175 2.49996 11.25V6.24996C2.49996 4.18242 4.18242 2.49996 6.24996 2.49996H53.7499C55.8175 2.49996 57.4999 4.18242 57.4999 6.24996V11.25C57.4999 13.3175 55.8175 15 53.7499 15H6.24996Z" fill="url(#paint7_linear_101_168)"/>
<path d="M46.25 5C45.56 5 45 5.56004 45 6.25004V11.25C45 11.94 45.56 12.5 46.25 12.5C46.94 12.5 47.5001 11.94 47.5001 11.25V6.24992C47.5 5.55992 46.94 5 46.25 5Z" fill="url(#paint8_linear_101_168)"/>
<path d="M5 28.75C5 30.8175 6.68246 32.5 8.75 32.5C10.8175 32.5 12.5 30.8175 12.5 28.75C12.5 26.6825 10.8175 25 8.75 25C6.68246 25 5 26.6826 5 28.75ZM9.99992 28.75C9.99992 29.44 9.43988 30 8.74988 30C8.05988 30 7.49996 29.44 7.49996 28.75C7.49996 28.06 8.06 27.5 8.75 27.5C9.44 27.5 9.99992 28.06 9.99992 28.75Z" fill="url(#paint9_linear_101_168)"/>
<path d="M8.75 5C6.68246 5 5 6.68246 5 8.75C5 10.8175 6.68246 12.5 8.75 12.5C10.8175 12.5 12.5 10.8175 12.5 8.75C12.5 6.68246 10.8174 5 8.75 5ZM8.75 9.99992C8.06 9.99992 7.49996 9.44 7.49996 8.75C7.49996 8.06 8.06 7.49996 8.75 7.49996C9.44 7.49996 10 8.06 10 8.75C10 9.44 9.44 9.99992 8.75 9.99992Z" fill="url(#paint10_linear_101_168)"/>
<path d="M41.25 5C40.56 5 40 5.56004 40 6.25004V11.25C40 11.94 40.56 12.5 41.25 12.5C41.94 12.5 42.5001 11.94 42.5001 11.25V6.24992C42.5001 5.55992 41.94 5 41.25 5Z" fill="url(#paint11_linear_101_168)"/>
<path d="M52.5001 29.4876V26.25C52.5001 25.56 51.94 25 51.25 25C50.56 25 50 25.56 50 26.25V29.4876C50 30.1776 50.56 30.7376 51.25 30.7376C51.94 30.7375 52.5001 30.1776 52.5001 29.4876Z" fill="url(#paint12_linear_101_168)"/>
<path d="M36.25 5C35.56 5 35 5.56004 35 6.25004V11.25C35 11.94 35.56 12.5 36.25 12.5C36.94 12.5 37.5001 11.94 37.5001 11.25V6.24992C37.5001 5.55992 36.94 5 36.25 5Z" fill="url(#paint13_linear_101_168)"/>
<defs>
<linearGradient id="paint0_linear_101_168" x1="45" y1="27.5" x2="47.5" y2="27.5" gradientUnits="userSpaceOnUse">
<stop stop-color="#0568EA"/>
<stop offset="1" stop-color="#08B5F7"/>
</linearGradient>
<linearGradient id="paint1_linear_101_168" x1="40" y1="27.8688" x2="42.5001" y2="27.8688" gradientUnits="userSpaceOnUse">
<stop stop-color="#0568EA"/>
<stop offset="1" stop-color="#08B5F7"/>
</linearGradient>
<linearGradient id="paint2_linear_101_168" x1="45" y1="53.7602" x2="47.5001" y2="53.7602" gradientUnits="userSpaceOnUse">
<stop stop-color="#0568EA"/>
<stop offset="1" stop-color="#08B5F7"/>
</linearGradient>
<linearGradient id="paint3_linear_101_168" x1="35" y1="28.7501" x2="37.5001" y2="28.7501" gradientUnits="userSpaceOnUse">
<stop stop-color="#0568EA"/>
<stop offset="1" stop-color="#08B5F7"/>
</linearGradient>
<linearGradient id="paint4_linear_101_168" x1="40.0032" y1="43.75" x2="52.5026" y2="43.75" gradientUnits="userSpaceOnUse">
<stop stop-color="#0568EA"/>
<stop offset="1" stop-color="#08B5F7"/>
</linearGradient>
<linearGradient id="paint5_linear_101_168" x1="32.5" y1="46.25" x2="59.9999" y2="46.25" gradientUnits="userSpaceOnUse">
<stop stop-color="#0568EA"/>
<stop offset="1" stop-color="#08B5F7"/>
</linearGradient>
<linearGradient id="paint6_linear_101_168" x1="50" y1="8.75" x2="52.5001" y2="8.75" gradientUnits="userSpaceOnUse">
<stop stop-color="#0568EA"/>
<stop offset="1" stop-color="#08B5F7"/>
</linearGradient>
<linearGradient id="paint7_linear_101_168" x1="0" y1="25" x2="60" y2="25" gradientUnits="userSpaceOnUse">
<stop stop-color="#0568EA"/>
<stop offset="1" stop-color="#08B5F7"/>
</linearGradient>
<linearGradient id="paint8_linear_101_168" x1="45" y1="8.75" x2="47.5001" y2="8.75" gradientUnits="userSpaceOnUse">
<stop stop-color="#0568EA"/>
<stop offset="1" stop-color="#08B5F7"/>
</linearGradient>
<linearGradient id="paint9_linear_101_168" x1="5" y1="28.75" x2="12.5" y2="28.75" gradientUnits="userSpaceOnUse">
<stop stop-color="#0568EA"/>
<stop offset="1" stop-color="#08B5F7"/>
</linearGradient>
<linearGradient id="paint10_linear_101_168" x1="5" y1="8.75" x2="12.5" y2="8.75" gradientUnits="userSpaceOnUse">
<stop stop-color="#0568EA"/>
<stop offset="1" stop-color="#08B5F7"/>
</linearGradient>
<linearGradient id="paint11_linear_101_168" x1="40" y1="8.75" x2="42.5001" y2="8.75" gradientUnits="userSpaceOnUse">
<stop stop-color="#0568EA"/>
<stop offset="1" stop-color="#08B5F7"/>
</linearGradient>
<linearGradient id="paint12_linear_101_168" x1="50" y1="27.8688" x2="52.5001" y2="27.8688" gradientUnits="userSpaceOnUse">
<stop stop-color="#0568EA"/>
<stop offset="1" stop-color="#08B5F7"/>
</linearGradient>
<linearGradient id="paint13_linear_101_168" x1="35" y1="8.75" x2="37.5001" y2="8.75" gradientUnits="userSpaceOnUse">
<stop stop-color="#0568EA"/>
<stop offset="1" stop-color="#08B5F7"/>
</linearGradient>
</defs>
</svg>
