<svg width="60" height="60" viewBox="0 0 60 60" fill="none" xmlns="http://www.w3.org/2000/svg">
<g clip-path="url(#clip0_158_5307)">
<path d="M29.9781 -0.0512675C30.1629 -0.0498088 30.1629 -0.0498088 30.3513 -0.0483207C32.7804 0.00430151 34.5185 1.21588 36.4066 2.61217C36.8522 2.93894 37.3042 3.25661 37.7564 3.57422C37.9144 3.68529 38.0723 3.79637 38.2302 3.90747C38.3288 3.9767 38.3288 3.9767 38.4294 4.04732C38.672 4.21875 38.672 4.21875 38.8405 4.36115C39.3871 4.80002 39.7852 4.88869 40.476 4.87639C40.5708 4.87705 40.6656 4.87771 40.7633 4.8784C41.0746 4.87997 41.3856 4.87753 41.6969 4.87519C41.9144 4.87583 42.132 4.87678 42.3496 4.87803C42.921 4.88071 43.4925 4.88022 44.064 4.87875C44.9786 4.87661 45.8931 4.87778 46.8077 4.88178C47.1263 4.8825 47.4448 4.88095 47.7633 4.87921C47.9596 4.87955 48.156 4.87998 48.3523 4.88051C48.4401 4.87942 48.5279 4.87833 48.6184 4.87721C49.3588 4.88278 49.8946 5.05926 50.4786 5.53711C51.1611 6.37124 51.1245 7.07979 51.0755 8.11615C51.069 8.40026 51.0631 8.68438 51.0577 8.96851C51.0481 9.41339 51.0353 9.85699 51.0123 10.3014C50.8736 11.932 50.8736 11.932 51.4241 13.405C51.9447 13.8809 52.5288 14.2033 53.1614 14.5069C53.5793 14.7211 53.9398 14.998 54.3092 15.2856C54.9791 15.7844 55.66 16.2659 56.3453 16.7432C57.14 17.2972 57.9318 17.8548 58.7184 18.4204C58.8069 18.4838 58.8955 18.5471 58.9867 18.6124C59.0687 18.6715 59.1507 18.7307 59.2352 18.7917C59.3068 18.8432 59.3784 18.8947 59.4522 18.9478C59.9868 19.3664 59.9868 19.3664 60.0443 19.7422C60.0444 19.8583 60.0445 19.9744 60.0447 20.0941C60.0457 20.2281 60.0466 20.3621 60.0477 20.5002C60.047 20.6481 60.0463 20.796 60.0455 20.9483C60.046 21.1065 60.0467 21.2647 60.0474 21.4229C60.0491 21.8585 60.0486 22.2942 60.0478 22.7298C60.0472 23.1993 60.0487 23.6688 60.0499 24.1383C60.0519 25.0585 60.052 25.9788 60.0514 26.8991C60.0509 27.6471 60.0511 28.3952 60.0517 29.1432C60.0518 29.2496 60.0519 29.3559 60.052 29.4655C60.0521 29.6816 60.0523 29.8976 60.0525 30.1137C60.0541 32.1416 60.0535 34.1695 60.0521 36.1974C60.051 38.0526 60.0525 39.9078 60.0553 41.763C60.0581 43.6672 60.0593 45.5715 60.0585 47.4758C60.0581 48.5451 60.0584 49.6144 60.0604 50.6838C60.0621 51.5944 60.0622 52.5051 60.0602 53.4157C60.0592 53.8803 60.0589 54.3449 60.0607 54.8095C60.0623 55.2351 60.0618 55.6606 60.0595 56.0862C60.0589 56.3125 60.0605 56.5389 60.0622 56.7652C60.054 57.7307 59.9337 58.3747 59.2755 59.1165C59.1447 59.2275 59.1447 59.2275 59.0113 59.3408C58.9245 59.4167 58.8376 59.4925 58.7481 59.5706C58.17 59.9859 57.6466 60.034 56.9501 60.0302C56.8555 60.0306 56.7609 60.031 56.6635 60.0314C56.3453 60.0325 56.0271 60.0319 55.7089 60.0313C55.479 60.0318 55.249 60.0323 55.0191 60.033C54.3863 60.0344 53.7534 60.0344 53.1205 60.0341C52.4384 60.034 51.7563 60.0353 51.0742 60.0364C49.7373 60.0384 48.4005 60.039 47.0637 60.0392C45.9774 60.0393 44.891 60.0398 43.8046 60.0405C43.492 60.0407 43.1793 60.0409 42.8667 60.0411C42.789 60.0412 42.7113 60.0412 42.6312 60.0413C40.4449 60.0427 38.2586 60.0436 36.0723 60.0435C35.9898 60.0435 35.9074 60.0435 35.8224 60.0435C35.4046 60.0435 34.9867 60.0435 34.5688 60.0435C34.4444 60.0435 34.4444 60.0435 34.3174 60.0434C34.1495 60.0434 33.9817 60.0434 33.8139 60.0434C31.2027 60.0433 28.5915 60.045 25.9803 60.0482C23.0472 60.0518 20.114 60.0539 17.1808 60.0536C15.6276 60.0536 14.0744 60.0542 12.5211 60.0567C11.1988 60.0589 9.87641 60.0594 8.55403 60.0578C7.87916 60.057 7.20431 60.057 6.52944 60.059C5.91175 60.0609 5.29409 60.0605 4.6764 60.0585C4.45284 60.0581 4.22926 60.0586 4.0057 60.0599C3.70187 60.0615 3.39817 60.0603 3.09435 60.0583C3.00748 60.0595 2.92062 60.0607 2.83113 60.0619C2.0119 60.0507 1.30195 59.7311 0.725191 59.1431C0.661594 59.0807 0.597997 59.0183 0.532473 58.954C-0.0803476 58.1302 -0.0511006 57.332 -0.0484939 56.3383C-0.0493192 56.1796 -0.0502952 56.0209 -0.0514085 55.8623C-0.0540084 55.4274 -0.0544169 54.9926 -0.0544519 54.5578C-0.0548629 54.0884 -0.0572795 53.619 -0.0594122 53.1496C-0.0636758 52.124 -0.065316 51.0984 -0.0664253 50.0728C-0.0671313 49.4324 -0.0683921 48.7919 -0.0697656 48.1515C-0.0734859 46.378 -0.0766169 44.6044 -0.0773544 42.8309C-0.077426 42.6607 -0.077428 42.6607 -0.0775011 42.4872C-0.0775957 42.2572 -0.0776894 42.0273 -0.0777836 41.7974C-0.0778311 41.6833 -0.0778777 41.5691 -0.0779266 41.4515C-0.0779737 41.3373 -0.0780212 41.223 -0.0780697 41.1053C-0.078948 39.2523 -0.0841636 37.3993 -0.0912697 35.5464C-0.0985085 33.6435 -0.102241 31.7407 -0.102413 29.8379C-0.102589 28.7697 -0.10426 27.7015 -0.109773 26.6333C-0.114447 25.724 -0.115908 24.8148 -0.113174 23.9056C-0.111875 23.4417 -0.112092 22.9779 -0.116393 22.514C-0.120295 22.0892 -0.119857 21.6646 -0.115985 21.2398C-0.115043 21.0136 -0.118716 20.7874 -0.122559 20.5612C-0.107664 19.5959 -0.107665 19.5959 0.201458 19.1863C0.43724 18.976 0.671626 18.8026 0.937593 18.6328C1.08029 18.5302 1.22284 18.4274 1.36514 18.3243C1.51035 18.2264 1.65593 18.1291 1.80185 18.0322C2.49243 17.566 3.17205 17.0876 3.84531 16.5967C4.66005 16.0038 5.48499 15.4282 6.31989 14.8641C6.495 14.7455 6.66795 14.6237 6.83894 14.4992C7.08777 14.3366 7.30757 14.2229 7.57645 14.104C8.07599 13.858 8.49073 13.6071 8.78916 13.125C9.07349 12.0815 8.96503 10.9499 8.92832 9.88037C8.91999 9.43694 8.91398 8.99357 8.90947 8.55009C8.90594 8.2751 8.89981 8.00012 8.89073 7.72526C8.86933 6.82513 8.93698 6.25162 9.52158 5.53711C10.1886 4.99136 10.7816 4.87013 11.6274 4.89538C11.7202 4.89664 11.8129 4.89789 11.9085 4.89918C12.1088 4.90194 12.3091 4.90543 12.5094 4.90957C12.8286 4.91557 13.1476 4.91832 13.4668 4.92004C14.3741 4.92496 15.2811 4.93107 16.1881 4.95037C19.3168 5.1482 19.3168 5.1482 22.0374 3.87489C22.1744 3.74053 22.3088 3.60358 22.44 3.46365C22.6888 3.20769 22.9701 3.02102 23.2691 2.82807C23.3568 2.7684 23.4445 2.70873 23.5349 2.64725C23.6188 2.5906 23.7027 2.53395 23.7892 2.47559C24.3617 2.08769 24.93 1.69725 25.4884 1.28906C26.8375 0.344425 28.3439 -0.0680311 29.9781 -0.0512675ZM27.7735 2.46094C27.6296 2.52552 27.6296 2.52552 27.4829 2.5914C26.3238 3.1718 25.1754 4.00437 24.2579 4.92188C28.0478 4.92188 31.8376 4.92188 35.7423 4.92188C35.36 4.53956 35.0735 4.25577 34.645 3.96195C34.5507 3.89722 34.4563 3.83249 34.3591 3.76579C34.2621 3.70016 34.165 3.63452 34.065 3.5669C33.9693 3.50081 33.8736 3.43472 33.775 3.36662C32.5564 2.5364 31.5037 2.06159 30.0147 2.07276C29.922 2.07342 29.8292 2.07408 29.7336 2.07476C29.0304 2.08934 28.4204 2.16934 27.7735 2.46094ZM11.0157 7.03125C10.9795 10.2869 10.9432 13.5426 10.9059 16.897C10.8899 17.9232 10.8738 18.9494 10.8574 20.0066C10.8515 20.9303 10.8515 20.9303 10.8479 21.854C10.8463 22.2641 10.8398 22.6737 10.8301 23.0837C10.6512 25.4308 10.6512 25.4308 11.3956 27.5509C11.746 27.8959 12.1197 28.1434 12.5583 28.3626C12.887 28.5366 13.1535 28.7752 13.4327 29.0186C13.5854 29.1423 13.5854 29.1423 13.7412 29.2685C14.106 29.5667 14.4654 29.8706 14.8243 30.1758C15.3924 30.6586 15.9667 31.133 16.545 31.6035C16.9147 31.9076 17.2796 32.2167 17.6441 32.5269C18.0857 32.9024 18.5301 33.2727 18.9845 33.6328C19.5063 34.0463 20.0142 34.4745 20.5212 34.9059C20.9234 35.2477 21.3289 35.5848 21.7384 35.918C22.2118 36.3033 22.6795 36.6946 23.1446 37.0898C23.8217 37.6645 24.5049 38.2306 25.1954 38.7891C25.3286 38.8995 25.4618 39.01 25.595 39.1205C27.2635 40.488 28.8868 41.0928 31.0548 40.8984C32.6347 40.587 33.7922 39.6241 34.9714 38.597C35.2434 38.3625 35.5219 38.1363 35.8009 37.9102C36.2743 37.5248 36.742 37.1335 37.2071 36.7383C37.766 36.2637 38.3297 35.7957 38.8981 35.3325C40.0206 34.417 41.139 33.4969 42.2425 32.5585C42.7341 32.141 43.2328 31.7328 43.733 31.3257C44.0999 31.024 44.4624 30.7177 44.8243 30.4102C45.3917 29.928 45.9652 29.4542 46.5428 28.9842C46.9896 28.6168 47.4306 28.2429 47.871 27.8677C48.1437 27.6357 48.4081 27.4157 48.7087 27.2201C49.0172 26.9724 49.0172 26.9724 49.0566 26.5843C49.056 26.4378 49.0555 26.2914 49.0549 26.1404C49.0554 26.0589 49.0559 25.9773 49.0564 25.8933C49.0574 25.6192 49.0542 25.3453 49.051 25.0711C49.0508 24.8716 49.0509 24.6721 49.0512 24.4726C49.0513 23.9379 49.0479 23.4034 49.0438 22.8687C49.0405 22.3672 49.0403 21.8657 49.0399 21.3641C49.0368 19.897 49.0286 18.43 49.0211 16.9629C49.009 13.6855 48.9969 10.408 48.9845 7.03125C36.4548 7.03125 23.9251 7.03125 11.0157 7.03125ZM7.96152 16.3257C7.31242 16.8174 6.65704 17.2955 5.98398 17.7539C5.90827 17.8055 5.83256 17.8572 5.75455 17.9104C5.59848 18.0168 5.44239 18.1232 5.28629 18.2295C4.83599 18.5373 4.38775 18.8479 3.94052 19.1602C3.85473 19.2193 3.76894 19.2784 3.68054 19.3394C3.60107 19.395 3.52161 19.4507 3.43973 19.5081C3.36943 19.5569 3.29913 19.6058 3.2267 19.6561C3.01424 19.8172 3.01424 19.8172 2.81259 20.1563C3.67244 20.8981 4.53515 21.6344 5.41681 22.3503C5.78259 22.6502 6.14355 22.9554 6.504 23.2617C6.99568 23.6786 7.48777 24.0948 7.98349 24.5068C8.08531 24.5917 8.18712 24.6766 8.29202 24.7641C8.5523 24.9807 8.5523 24.9807 8.90634 25.0781C8.90634 21.9844 8.90634 18.8906 8.90634 15.7031C8.60325 15.7031 8.20743 16.1377 7.96152 16.3257ZM51.0938 15.7031C51.0938 18.7969 51.0938 21.8906 51.0938 25.0781C51.5743 24.8379 51.933 24.5428 52.3316 24.1919C52.4792 24.0636 52.6269 23.9354 52.7747 23.8074C52.8476 23.7442 52.9204 23.6811 52.9954 23.616C53.3793 23.2862 53.7734 22.9691 54.1664 22.6501C54.5349 22.3478 54.8983 22.0399 55.2613 21.731C55.8934 21.1933 56.5357 20.6698 57.1876 20.1563C56.7208 19.6584 56.2128 19.2685 55.6568 18.8745C55.5657 18.8093 55.4745 18.7441 55.3806 18.677C55.0851 18.4661 54.7888 18.2563 54.4923 18.0469C54.3899 17.9745 54.2874 17.9022 54.1819 17.8276C53.6854 17.4774 53.1882 17.1282 52.6901 16.7802C52.6108 16.7249 52.5316 16.6695 52.4499 16.6125C52.0008 16.3051 51.5467 16.005 51.0938 15.7031ZM2.10947 22.3828C2.10947 33.675 2.10947 44.9672 2.10947 56.6016C2.61735 56.2984 2.61735 56.2984 3.06619 55.9451C3.13165 55.8883 3.19711 55.8314 3.26455 55.7728C3.33293 55.7128 3.40132 55.6527 3.47177 55.5908C3.61893 55.4632 3.76617 55.3356 3.91352 55.2081C3.98567 55.1457 4.05782 55.0832 4.13215 55.0188C4.50545 54.6982 4.88762 54.3887 5.26941 54.0784C6.3916 53.1656 7.50772 52.2456 8.60966 51.3085C9.10126 50.891 9.59999 50.4828 10.1002 50.0757C10.467 49.774 10.8296 49.4677 11.1915 49.1602C11.7504 48.6855 12.3141 48.2176 12.8825 47.7544C14.005 46.8389 15.1234 45.9188 16.2268 44.9804C16.7184 44.5629 17.2172 44.1547 17.7174 43.7476C18.0842 43.4459 18.4468 43.1396 18.8087 42.832C19.3758 42.3502 19.9488 41.8766 20.5262 41.407C20.9807 41.0331 21.4289 40.6519 21.8759 40.269C22.1548 40.0313 22.4291 39.813 22.7345 39.6094C22.7345 39.532 22.7345 39.4547 22.7345 39.375C22.5578 39.2139 22.3729 39.0617 22.1852 38.9136C22.0675 38.8195 21.9498 38.7254 21.8286 38.6284C21.7658 38.5783 21.7031 38.5281 21.6384 38.4765C21.3154 38.2152 20.9998 37.9453 20.6837 37.6758C20.2186 37.2805 19.7509 36.8892 19.2774 36.5039C18.7378 36.0647 18.2063 35.6168 17.6762 35.1663C17.1727 34.7392 16.6626 34.321 16.1505 33.9043C15.7808 33.6003 15.4159 33.2911 15.0514 32.981C14.6098 32.6054 14.1654 32.2351 13.711 31.875C13.1892 31.4615 12.6813 31.0333 12.1743 30.602C11.7721 30.2602 11.3666 29.923 10.9571 29.5898C10.4175 29.1506 9.88601 28.7028 9.35587 28.2523C8.85242 27.8252 8.34224 27.4069 7.83014 26.9902C7.4605 26.6862 7.09556 26.377 6.73105 26.0669C6.19813 25.6137 5.65769 25.1723 5.10919 24.738C4.7461 24.4448 4.39089 24.1431 4.03574 23.8403C3.13552 22.9191 3.13552 22.9191 2.10947 22.3828ZM57.0851 22.9614C56.9444 23.0814 56.8037 23.2014 56.663 23.3212C56.5927 23.3811 56.5224 23.4409 56.45 23.5026C56.0777 23.8178 55.699 24.125 55.3208 24.4331C54.1983 25.3486 53.0799 26.2687 51.9765 27.2071C51.4849 27.6246 50.9861 28.0328 50.4859 28.4399C50.1191 28.7416 49.7565 29.0479 49.3946 29.3555C48.8265 29.8383 48.2522 30.3127 47.6739 30.7832C47.3043 31.0873 46.9393 31.3964 46.5748 31.7065C46.0416 32.16 45.5007 32.6015 44.952 33.0363C44.5277 33.3788 44.113 33.7322 43.6978 34.0855C43.2955 34.4273 42.89 34.7645 42.4806 35.0977C42.0071 35.483 41.5394 35.8743 41.0743 36.2695C40.5074 36.7513 39.9345 37.2248 39.3572 37.6941C38.8989 38.0713 38.4471 38.4562 37.9968 38.8428C37.5253 39.2452 37.5253 39.2452 37.2657 39.375C37.4109 39.8104 37.581 39.9134 37.9395 40.1953C38.0562 40.2884 38.1728 40.3814 38.2929 40.4773C38.3549 40.5267 38.417 40.5761 38.4809 40.627C38.8034 40.8874 39.1183 41.1568 39.4337 41.4258C39.8987 41.8211 40.3665 42.2123 40.8399 42.5977C41.3134 42.983 41.7811 43.3743 42.2462 43.7695C42.923 44.3444 43.6079 44.9086 44.297 45.4688C45.0523 46.0827 45.801 46.7034 46.5427 47.3336C46.9431 47.6733 47.3468 48.0084 47.754 48.3398C48.2936 48.779 48.8251 49.2269 49.3553 49.6774C49.8587 50.1045 50.3689 50.5228 50.881 50.9395C51.2506 51.2435 51.6156 51.5527 51.9801 51.8628C52.4217 52.2384 52.866 52.6086 53.3204 52.9688C53.7748 53.3289 54.2191 53.6992 54.6607 54.0747C56.1802 55.6361 56.1802 55.6361 57.8907 56.6016C57.8907 45.3094 57.8907 34.0172 57.8907 22.3828C57.6129 22.3828 57.2968 22.7792 57.0851 22.9614ZM23.5694 41.5942C22.9386 42.1457 22.3013 42.686 21.65 43.2133C21.2825 43.5139 20.9207 43.8207 20.5592 44.1284C20.0259 44.5819 19.4851 45.0234 18.9364 45.4582C18.512 45.8007 18.0974 46.1541 17.6821 46.5074C17.2799 46.8492 16.8744 47.1864 16.4649 47.5195C15.9915 47.9049 15.5238 48.2962 15.0587 48.6914C14.4905 49.1742 13.9163 49.6486 13.338 50.1192C12.9683 50.4232 12.6034 50.7324 12.2389 51.0425C11.7056 51.496 11.1647 51.9375 10.6161 52.3723C10.1917 52.7147 9.7771 53.0682 9.36182 53.4215C8.95958 53.7633 8.55409 54.1004 8.14462 54.4336C7.6057 54.8723 7.07464 55.3194 6.54543 55.7696C6.02812 56.2089 5.50272 56.6375 4.97324 57.0621C4.66772 57.3216 4.3851 57.6072 4.10166 57.8906C21.1946 57.8906 38.2876 57.8906 55.8985 57.8906C55.417 57.4075 55.417 57.4075 54.9162 56.9513C54.8454 56.8899 54.7746 56.8284 54.7017 56.7652C54.6277 56.7015 54.5538 56.6379 54.4776 56.5723C54.3999 56.5051 54.3222 56.438 54.2422 56.3688C53.6976 55.9 53.1454 55.4416 52.5871 54.9893C52.2224 54.6911 51.8629 54.3872 51.504 54.082C50.9451 53.6074 50.3814 53.1394 49.813 52.6762C48.6905 51.7608 47.5721 50.8407 46.4687 49.9022C45.9771 49.4847 45.4783 49.0766 44.9781 48.6694C44.6113 48.3678 44.2487 48.0614 43.8868 47.7539C43.3279 47.2793 42.7643 46.8113 42.1958 46.3481C41.0734 45.4327 39.9552 44.5126 38.8517 43.5744C38.3589 43.1559 37.8596 42.7459 37.3582 42.3376C36.7769 41.8622 36.2012 41.3801 35.6251 40.8984C35.3283 41.0736 35.0362 41.252 34.7494 41.4432C32.7586 42.7704 30.5747 43.2358 28.2061 42.8142C26.885 42.4939 25.712 41.8737 24.6552 41.0234C24.2493 40.7121 23.8772 41.3232 23.5694 41.5942Z" fill="url(#paint0_linear_158_5307)"/>
<path d="M37.2655 12.7149C37.423 12.8501 37.5793 12.9868 37.7342 13.1251C37.8186 13.1917 37.9031 13.2583 37.9901 13.327C39.8994 14.8855 40.9611 17.282 41.2498 19.6876C41.4358 22.5013 40.7629 25.014 38.9061 27.1876C37.9916 28.1595 36.8094 28.7651 35.4733 28.8539C34.1912 28.8868 33.3687 28.7342 32.4173 27.8578C32.2264 27.6563 32.2264 27.6563 31.992 27.3048C31.9237 27.3572 31.8555 27.4096 31.7851 27.4636C30.2417 28.6017 28.7271 28.9808 26.8358 28.8282C25.6453 28.6153 24.6703 27.9816 23.9207 27.0338C23.0016 25.6127 22.9101 23.8698 23.2249 22.2511C23.4029 21.5001 23.6702 20.8403 24.0233 20.1563C24.0724 20.0518 24.1215 19.9473 24.172 19.8396C25.0152 18.1386 26.5565 16.6866 28.3592 16.0548C29.4052 15.7122 30.8879 15.8266 31.8748 16.2892C32.4616 16.6259 32.9974 17.0265 33.5155 17.461C33.5354 17.389 33.5553 17.3169 33.5759 17.2427C33.8046 16.4799 33.8046 16.4799 34.0721 16.1646C34.464 16.0013 34.7359 15.9958 35.1561 16.0548C35.5003 16.2745 35.5003 16.2745 35.742 16.6407C35.8402 17.4347 35.6939 18.2189 35.5319 18.9941C35.5099 19.1036 35.4879 19.2132 35.4652 19.3261C35.4185 19.5571 35.3713 19.788 35.3236 20.0189C35.2525 20.3632 35.1829 20.7077 35.1137 21.0524C34.8635 22.2881 34.5956 23.517 34.2811 24.7381C34.1413 25.2984 34.0741 25.7896 34.1014 26.3673C34.5434 26.6619 34.9965 26.6585 35.5076 26.6017C36.5825 26.3819 37.2068 25.8447 37.8074 24.9464C38.9911 22.9887 39.3506 20.9297 38.8086 18.7007C38.1471 16.6741 36.9296 14.9483 35.0052 13.9579C32.6085 12.7985 29.8983 12.8613 27.4128 13.7051C24.4971 14.7554 22.1822 17.0166 20.7667 19.7393C19.8269 21.774 19.6841 23.8377 20.3648 25.9796C21.1809 28.1949 22.6593 29.7367 24.7864 30.7238C25.7045 31.1181 26.68 31.3263 27.6561 31.5235C27.7911 31.551 27.9262 31.5785 28.0653 31.6068C31.4837 32.207 35.2244 31.9081 38.203 30.0001C38.936 29.4657 39.5833 28.8923 40.1553 28.1873C40.4062 27.9006 40.5488 27.8905 40.9349 27.8541C41.4344 27.8964 41.6037 28.0102 41.953 28.3595C42.1309 28.7153 42.1283 28.8973 42.0701 29.297C40.7769 31.5441 38.0708 32.8827 35.6541 33.5523C32.3953 34.3467 29.0284 34.2148 25.7811 33.3985C25.6557 33.3671 25.6557 33.3671 25.5278 33.335C23.7404 32.8691 22.2314 32.0648 20.8592 30.8204C20.7865 30.7586 20.7139 30.6968 20.639 30.6332C18.8512 29.0113 17.8348 26.3894 17.6951 24.0235C17.6903 23.9465 17.6855 23.8694 17.6805 23.7901C17.5807 20.4833 19.076 17.5516 21.2781 15.1763C25.2192 11.0514 32.3245 8.98572 37.2655 12.7149ZM26.6266 19.949C26.4477 20.2074 26.2874 20.4689 26.1326 20.7423C26.0798 20.8338 26.0269 20.9254 25.9724 21.0197C25.3215 22.2252 24.9779 23.5155 25.3416 24.8585C25.5634 25.5278 25.8119 26.0365 26.4329 26.4039C27.2576 26.8087 28.0652 26.8551 28.9575 26.625C29.8642 26.2837 30.5125 25.7795 31.1717 25.0782C31.2749 24.9738 31.3781 24.8694 31.4844 24.7619C32.1693 23.9879 32.4941 23.2486 32.7391 22.2437C32.7665 22.1366 32.7939 22.0295 32.8221 21.9191C33.0233 20.9544 32.7668 20.2963 32.2561 19.4761C31.6691 18.7575 31.1333 18.144 30.1706 18.0035C28.661 17.9656 27.5492 18.7961 26.6266 19.949Z" fill="url(#paint1_linear_158_5307)"/>
</g>
<defs>
<linearGradient id="paint0_linear_158_5307" x1="-0.122559" y1="30.0051" x2="60.0622" y2="30.0051" gradientUnits="userSpaceOnUse">
<stop stop-color="#0568EA"/>
<stop offset="1" stop-color="#08B5F7"/>
</linearGradient>
<linearGradient id="paint1_linear_158_5307" x1="17.6758" y1="22.425" x2="42.1055" y2="22.425" gradientUnits="userSpaceOnUse">
<stop stop-color="#0568EA"/>
<stop offset="1" stop-color="#08B5F7"/>
</linearGradient>
<clipPath id="clip0_158_5307">
<rect width="60" height="60" fill="white"/>
</clipPath>
</defs>
</svg>
