<svg width="60" height="60" viewBox="0 0 60 60" fill="none" xmlns="http://www.w3.org/2000/svg">
<g clip-path="url(#clip0_49_840)">
<path d="M21.2485 12.5409C21.9384 12.5409 22.4984 11.9809 22.4984 11.291C22.4984 10.601 21.9384 10.041 21.2485 10.041C20.5585 10.041 19.9985 10.601 19.9985 11.291C19.9985 11.9809 20.5585 12.5409 21.2485 12.5409Z" fill="url(#paint0_linear_49_840)"/>
<path d="M43.747 12.5409H53.7463C54.4363 12.5409 54.9963 11.9809 54.9963 11.291C54.9963 10.601 54.4363 10.041 53.7463 10.041H43.747C43.0571 10.041 42.4971 10.601 42.4971 11.291C42.4971 11.9809 43.0571 12.5409 43.747 12.5409Z" fill="url(#paint1_linear_49_840)"/>
<path d="M16.249 22.5398C16.9389 22.5398 17.4989 21.9798 17.4989 21.2898V18.79C17.4989 18.1001 18.0614 17.5401 18.7489 17.5401H56.2463C56.9338 17.5401 57.4963 18.1001 57.4963 18.79V23.7897C57.4963 24.4797 56.9338 25.0397 56.2463 25.0397H26.2483C25.5583 25.0397 24.9983 25.5997 24.9983 26.2896C24.9983 26.9796 25.5583 27.5396 26.2483 27.5396H56.2462C56.9337 27.5396 57.4962 28.0996 57.4962 28.7895V33.7892C57.4962 34.4792 58.0562 35.0392 58.7461 35.0392C59.4361 35.0392 59.9961 34.4792 59.9961 33.7892V28.7895C59.9961 27.8272 59.6211 26.9546 59.0211 26.2898C59.6211 25.6248 59.9961 24.7524 59.9961 23.79V18.7903C59.9961 17.8279 59.6211 16.9554 59.0211 16.2905C59.6211 15.6255 59.9961 14.7531 59.9961 13.7907V8.79076C59.9961 6.72336 58.3137 5.04102 56.2463 5.04102H18.7488C16.6814 5.04102 14.999 6.72336 14.999 8.79076V13.7905C14.999 14.7529 15.374 15.6254 15.974 16.2902C15.374 16.9552 14.999 17.8276 14.999 18.79V21.2898C14.999 21.9799 15.559 22.5398 16.249 22.5398ZM17.4988 8.79076C17.4988 8.10081 18.0613 7.54081 18.7488 7.54081H56.2462C56.9337 7.54081 57.4962 8.10081 57.4962 8.79076V13.7905C57.4962 14.4804 56.9337 15.0404 56.2462 15.0404H18.7488C18.0613 15.0404 17.4988 14.4804 17.4988 13.7905V8.79076Z" fill="url(#paint2_linear_49_840)"/>
<path d="M43.747 30.0391C43.0571 30.0391 42.4971 30.5991 42.4971 31.289C42.4971 31.979 43.0571 32.539 43.747 32.539H53.7463C54.4363 32.539 54.9963 31.979 54.9963 31.289C54.9963 30.5991 54.4363 30.0391 53.7463 30.0391H43.747Z" fill="url(#paint3_linear_49_840)"/>
<path d="M59.8684 43.2283C58.1336 39.7561 54.2888 37.9862 50.5265 38.9311L42.4246 40.956C42.0646 37.8337 40.2173 35.9913 36.52 35.0638L14.834 30.2492C14.9015 29.7742 14.954 29.3217 14.9915 28.8993C15.0265 28.5192 14.8814 28.1443 14.6065 27.8818C12.4641 25.8519 3.89727 25.1945 1.32249 25.0419C0.985011 25.0294 0.642495 25.1445 0.392551 25.3794C0.14249 25.6145 0 25.9445 0 26.2894V48.7879C0 49.4778 0.560001 50.0379 1.24995 50.0379H8.74944C9.2894 50.0379 9.76937 49.6904 9.93682 49.1779C9.96928 49.0753 10.1418 48.5504 10.3968 47.7355L28.308 53.7076C30.4078 54.5 31.8603 54.96 33.4877 54.96C36.0225 54.9575 38.9923 53.8501 45.5169 51.1778L59.2659 44.9282C59.5734 44.7882 59.8133 44.5283 59.9283 44.2083C60.0409 43.8858 60.0209 43.5333 59.8684 43.2283ZM7.83696 47.5381H2.49979V27.6294C6.51706 27.9468 10.8518 28.6368 12.4291 29.4017C11.7642 34.8763 8.7669 44.6007 7.83696 47.5381ZM44.5269 48.8805C34.0177 53.1876 33.6502 53.0502 29.1479 51.3503L11.1317 45.3456C12.1591 41.9433 13.5891 36.8962 14.409 32.7165L35.945 37.5012C38.7124 38.1911 39.8273 39.2836 39.9798 41.5659L37.5799 42.1658C36.69 42.3884 35.7401 42.4109 34.8376 42.2309L23.9909 40.0611C23.3459 39.921 22.6584 40.3635 22.521 41.041C22.386 41.7185 22.826 42.376 23.5034 42.5109L34.3501 44.6808C34.915 44.7932 35.49 44.8482 36.065 44.8482C36.7799 44.8482 37.495 44.7633 38.1874 44.5882L41.5397 43.7507C41.5447 43.7507 41.5496 43.7507 41.5547 43.7507L51.1315 41.3559C53.3189 40.8159 55.5412 41.5759 56.9187 43.2458L44.5269 48.8805Z" fill="url(#paint4_linear_49_840)"/>
<path d="M19.9988 21.289C19.9988 21.979 20.5588 22.539 21.2487 22.539C21.9387 22.539 22.4986 21.979 22.4986 21.289C22.4986 20.5991 21.9386 20.0391 21.2486 20.0391C20.5587 20.0391 19.9988 20.5965 19.9988 21.289Z" fill="url(#paint5_linear_49_840)"/>
<path d="M53.7463 22.539C54.4363 22.539 54.9963 21.979 54.9963 21.289C54.9963 20.5991 54.4363 20.0391 53.7463 20.0391H43.747C43.0571 20.0391 42.4971 20.5991 42.4971 21.289C42.4971 21.979 43.0571 22.539 43.747 22.539H53.7463Z" fill="url(#paint6_linear_49_840)"/>
</g>
<defs>
<linearGradient id="paint0_linear_49_840" x1="19.9985" y1="11.291" x2="22.4984" y2="11.291" gradientUnits="userSpaceOnUse">
<stop stop-color="#0568EA"/>
<stop offset="1" stop-color="#08B5F7"/>
</linearGradient>
<linearGradient id="paint1_linear_49_840" x1="42.4971" y1="11.291" x2="54.9963" y2="11.291" gradientUnits="userSpaceOnUse">
<stop stop-color="#0568EA"/>
<stop offset="1" stop-color="#08B5F7"/>
</linearGradient>
<linearGradient id="paint2_linear_49_840" x1="14.999" y1="20.0401" x2="59.9961" y2="20.0401" gradientUnits="userSpaceOnUse">
<stop stop-color="#0568EA"/>
<stop offset="1" stop-color="#08B5F7"/>
</linearGradient>
<linearGradient id="paint3_linear_49_840" x1="42.4971" y1="31.289" x2="54.9963" y2="31.289" gradientUnits="userSpaceOnUse">
<stop stop-color="#0568EA"/>
<stop offset="1" stop-color="#08B5F7"/>
</linearGradient>
<linearGradient id="paint4_linear_49_840" x1="0" y1="40.0005" x2="60" y2="40.0005" gradientUnits="userSpaceOnUse">
<stop stop-color="#0568EA"/>
<stop offset="1" stop-color="#08B5F7"/>
</linearGradient>
<linearGradient id="paint5_linear_49_840" x1="19.9988" y1="21.289" x2="22.4986" y2="21.289" gradientUnits="userSpaceOnUse">
<stop stop-color="#0568EA"/>
<stop offset="1" stop-color="#08B5F7"/>
</linearGradient>
<linearGradient id="paint6_linear_49_840" x1="42.4971" y1="21.289" x2="54.9963" y2="21.289" gradientUnits="userSpaceOnUse">
<stop stop-color="#0568EA"/>
<stop offset="1" stop-color="#08B5F7"/>
</linearGradient>
<clipPath id="clip0_49_840">
<rect width="60" height="60" fill="white"/>
</clipPath>
</defs>
</svg>
