<svg width="60" height="60" viewBox="0 0 60 60" fill="none" xmlns="http://www.w3.org/2000/svg">
<g clip-path="url(#clip0_49_853)">
<path d="M6.25236 42.502C5.56243 42.502 5.00244 43.0619 5.00244 43.7519C5.00244 44.4418 5.56243 45.0018 6.25236 45.0018C6.94229 45.0018 7.50228 44.4418 7.50228 43.7519C7.50228 43.0619 6.94229 42.502 6.25236 42.502Z" fill="url(#paint0_linear_49_853)"/>
<path d="M36.2494 52.5H26.2504C25.5605 52.5 25.0005 53.06 25.0005 53.7499C25.0005 54.4399 25.5605 54.9998 26.2504 54.9998H36.2494C36.9393 54.9998 37.4993 54.4399 37.4993 53.7499C37.4992 53.06 36.9393 52.5 36.2494 52.5Z" fill="url(#paint1_linear_49_853)"/>
<path d="M6.25236 52.5C5.56243 52.5 5.00244 53.06 5.00244 53.7499C5.00244 54.4399 5.56243 54.9998 6.25236 54.9998C6.94229 54.9998 7.50228 54.4399 7.50228 53.7499C7.50216 53.06 6.94229 52.5 6.25236 52.5Z" fill="url(#paint2_linear_49_853)"/>
<path d="M59.7573 23.2434C59.5698 21.7861 58.7424 20.5187 57.4925 19.7662C56.2601 19.0213 54.7802 18.8863 53.4078 19.4012C52.3379 19.8086 51.1031 19.2537 50.6056 18.1413C50.0206 16.834 49.3032 15.5865 48.4707 14.4292C47.7483 13.4243 47.8833 12.1068 48.7832 11.367C49.8956 10.4521 50.5156 9.09975 50.488 7.65989C50.4605 6.19753 49.7706 4.84766 48.5982 3.96028C46.6909 2.51292 44.6061 1.31058 42.4014 0.380665C41.0389 -0.191741 39.5192 -0.116748 38.2342 0.593106C36.9768 1.28808 36.117 2.50038 35.8819 3.91775C35.6894 5.07264 34.5945 5.83757 33.3696 5.71512C31.9723 5.56759 30.5149 5.56759 29.1151 5.71512C27.8602 5.82011 26.7978 5.07264 26.6053 3.91775C26.3703 2.50038 25.5129 1.28796 24.253 0.593106C22.9656 -0.114287 21.4458 -0.18928 20.0858 0.383126C17.881 1.31304 15.7962 2.51538 13.889 3.96274C12.7191 4.85012 12.0291 6.19999 11.9991 7.66235C11.9716 9.10467 12.5941 10.4545 13.7065 11.372C14.6064 12.112 14.7414 13.4268 14.0165 14.4342C13.184 15.5941 12.4641 16.8439 11.8816 18.1463C11.3867 19.2562 10.1568 19.8137 9.05193 19.3963C7.7071 18.8888 6.22716 19.0263 4.99482 19.7688C3.74244 20.5212 2.91752 21.7885 2.73004 23.246C2.57501 24.4434 2.49756 25.6557 2.49756 26.8507C2.49756 28.0456 2.57501 29.2579 2.73004 30.4554C2.91752 31.9127 3.7449 33.1826 4.99482 33.935C6.2247 34.6775 7.70452 34.81 9.07689 34.2975C9.78428 34.0299 10.5792 34.1724 11.2042 34.6775C11.7417 35.1124 12.5291 35.0275 12.9615 34.49C13.3965 33.9525 13.3115 33.1651 12.774 32.7327C11.4566 31.6678 9.74936 31.3778 8.17698 31.9678C7.5495 32.2053 6.85956 32.1427 6.28716 31.7953C5.69225 31.4378 5.30229 30.8329 5.2123 30.1379C5.06981 29.0455 4.99986 27.9406 4.99986 26.8533C4.99986 25.7659 5.06981 24.661 5.2123 23.5686C5.29983 22.8711 5.69225 22.2687 6.2847 21.9112C6.8571 21.5663 7.54458 21.5012 8.19947 21.7487C10.5068 22.6136 13.1265 21.4812 14.1639 19.1689C14.6763 18.0191 15.3113 16.9167 16.0462 15.8942C17.546 13.8044 17.2236 11.0296 15.2938 9.4398C14.7739 9.0148 14.4863 8.38486 14.4989 7.71496C14.5139 7.01999 14.8414 6.37763 15.4012 5.95509C17.1435 4.63276 19.0459 3.53529 21.0582 2.68787C21.7106 2.41039 22.4356 2.44789 23.0479 2.78536C23.6428 3.11286 24.0328 3.66031 24.1428 4.33021C24.5553 6.80743 26.8126 8.46231 29.3798 8.2023C30.6072 8.07481 31.892 8.07481 33.1144 8.2023C35.6966 8.47227 37.9389 6.80743 38.3514 4.33021C38.4639 3.66277 38.8538 3.11286 39.4463 2.78536C40.0562 2.44789 40.7812 2.41285 41.4361 2.68787C43.4483 3.53529 45.3531 4.63522 47.093 5.95509C47.653 6.37751 47.9829 7.01999 47.9953 7.71239C48.0103 8.38228 47.7203 9.01222 47.2004 9.43968C45.2707 11.0295 44.9482 13.8043 46.4505 15.8915C47.183 16.9139 47.8154 18.0163 48.3328 19.1687C49.3677 21.481 51.9925 22.6133 54.3223 21.7385C54.9547 21.501 55.6397 21.5685 56.2121 21.911C56.8045 22.2685 57.1945 22.8734 57.2845 23.5683C57.427 24.6608 57.4969 25.7656 57.4969 26.853C57.4969 27.9404 57.427 29.0478 57.2845 30.1377C57.1945 30.8327 56.8021 31.4375 56.2096 31.795C55.6372 32.14 54.9473 32.2075 54.2923 31.9576C51.9825 31.0927 49.3653 32.2251 48.3328 34.5373C47.8154 35.6922 47.183 36.7946 46.4505 37.8145C44.9482 39.9043 45.2707 42.6791 47.2004 44.2689C47.7203 44.6939 48.0079 45.3213 47.9953 45.9938C47.9828 46.6862 47.6554 47.3286 47.0954 47.7511C46.613 48.1161 46.1181 48.4659 45.6081 48.7985C45.0307 49.1759 44.8657 49.9509 45.2431 50.5284C45.4831 50.8958 45.8806 51.0959 46.2906 51.0959C46.5255 51.0959 46.763 51.0308 46.973 50.8934C47.5304 50.5284 48.0754 50.1459 48.6054 49.7435C49.7777 48.8536 50.4652 47.5037 50.4952 46.0413C50.5227 44.6015 49.9003 43.2516 48.7878 42.3342C47.8879 41.5943 47.7529 40.277 48.4779 39.2721C49.3078 38.1172 50.0252 36.8673 50.6127 35.5599C51.1077 34.45 52.3376 33.8926 53.4424 34.31C54.7923 34.8175 56.2696 34.6775 57.4995 33.9375C58.7519 33.1825 59.5768 31.9151 59.7643 30.4578C59.9193 29.2604 59.9968 28.0455 59.9968 26.8531C59.9972 25.6606 59.9198 24.4457 59.7573 23.2434Z" fill="url(#paint3_linear_49_853)"/>
<path d="M41.9589 23.4003C40.4566 18.7358 36.1544 15.6035 31.2499 15.6035C26.3553 15.6035 22.0558 18.7307 20.546 23.3827C20.1835 24.5001 20.001 25.6676 20.001 26.8524C20.001 29.7372 21.0934 32.4819 23.0732 34.5767C23.3182 34.8367 23.6482 34.9691 23.9806 34.9691C24.2906 34.9691 24.598 34.8566 24.8406 34.6317C25.343 34.1567 25.3655 33.3667 24.8906 32.8643C23.3482 31.2319 22.5008 29.0996 22.5008 26.8549C22.5008 25.93 22.6433 25.0226 22.9232 24.1552C24.0982 20.538 27.4428 18.1057 31.2499 18.1057C35.067 18.1057 38.4168 20.5454 39.5816 24.1751C39.8591 25.0375 39.9991 25.9399 39.9991 26.8523C39.9991 29.1246 39.1342 31.2769 37.5618 32.9117C37.0819 33.4092 37.0993 34.2016 37.5969 34.6791C37.8368 34.914 38.1494 35.0291 38.4618 35.0291C38.7917 35.0291 39.1166 34.8992 39.3641 34.6442C41.3865 32.5394 42.4988 29.7721 42.4988 26.8524C42.4988 25.6775 42.3188 24.5202 41.9613 23.4078C41.9613 23.4052 41.9589 23.4052 41.9589 23.4003Z" fill="url(#paint4_linear_49_853)"/>
<path d="M36.2497 42.502H26.2507C25.5607 42.502 25.0007 43.0619 25.0007 43.7519C25.0007 44.4418 25.5607 45.0018 26.2507 45.0018H36.2497C36.9396 45.0018 37.4996 44.4418 37.4996 43.7519C37.4996 43.0619 36.9396 42.502 36.2497 42.502Z" fill="url(#paint5_linear_49_853)"/>
<path d="M38.7493 37.502H3.75257C1.68523 37.502 0.00292969 39.1843 0.00292969 41.2516V46.2512C0.00292969 47.2135 0.377894 48.086 0.977836 48.7509C0.377894 49.4159 0.00292969 50.2882 0.00292969 51.2506V56.2502C0.00292969 58.3175 1.68523 59.9998 3.75257 59.9998H38.7493C40.8166 59.9998 42.4989 58.3175 42.4989 56.2502V51.2506C42.4989 50.2882 42.1239 49.4157 41.524 48.7509C42.1239 48.0859 42.4989 47.2135 42.4989 46.2512V41.2516C42.4989 39.1843 40.8166 37.502 38.7493 37.502ZM39.9992 56.2502C39.9992 56.9401 39.4392 57.5001 38.7493 57.5001H3.75257C3.06264 57.5001 2.50265 56.9401 2.50265 56.2502V51.2506C2.50265 50.5607 3.06264 50.0007 3.75257 50.0007H38.7493C39.4392 50.0007 39.9992 50.5607 39.9992 51.2506V56.2502ZM39.9992 46.2512C39.9992 46.9411 39.4392 47.5011 38.7493 47.5011H3.75257C3.06264 47.5011 2.50265 46.9411 2.50265 46.2512V41.2516C2.50265 40.5617 3.06264 40.0017 3.75257 40.0017H38.7493C39.4392 40.0017 39.9992 40.5617 39.9992 41.2516V46.2512Z" fill="url(#paint6_linear_49_853)"/>
</g>
<defs>
<linearGradient id="paint0_linear_49_853" x1="5.00244" y1="43.7519" x2="7.50228" y2="43.7519" gradientUnits="userSpaceOnUse">
<stop stop-color="#0568EA"/>
<stop offset="1" stop-color="#08B5F7"/>
</linearGradient>
<linearGradient id="paint1_linear_49_853" x1="25.0005" y1="53.7499" x2="37.4993" y2="53.7499" gradientUnits="userSpaceOnUse">
<stop stop-color="#0568EA"/>
<stop offset="1" stop-color="#08B5F7"/>
</linearGradient>
<linearGradient id="paint2_linear_49_853" x1="5.00244" y1="53.7499" x2="7.50228" y2="53.7499" gradientUnits="userSpaceOnUse">
<stop stop-color="#0568EA"/>
<stop offset="1" stop-color="#08B5F7"/>
</linearGradient>
<linearGradient id="paint3_linear_49_853" x1="2.49756" y1="25.5479" x2="59.9968" y2="25.5479" gradientUnits="userSpaceOnUse">
<stop stop-color="#0568EA"/>
<stop offset="1" stop-color="#08B5F7"/>
</linearGradient>
<linearGradient id="paint4_linear_49_853" x1="20.001" y1="25.3163" x2="42.4988" y2="25.3163" gradientUnits="userSpaceOnUse">
<stop stop-color="#0568EA"/>
<stop offset="1" stop-color="#08B5F7"/>
</linearGradient>
<linearGradient id="paint5_linear_49_853" x1="25.0007" y1="43.7519" x2="37.4996" y2="43.7519" gradientUnits="userSpaceOnUse">
<stop stop-color="#0568EA"/>
<stop offset="1" stop-color="#08B5F7"/>
</linearGradient>
<linearGradient id="paint6_linear_49_853" x1="0.00292969" y1="48.7509" x2="42.4989" y2="48.7509" gradientUnits="userSpaceOnUse">
<stop stop-color="#0568EA"/>
<stop offset="1" stop-color="#08B5F7"/>
</linearGradient>
<clipPath id="clip0_49_853">
<rect width="60" height="60" fill="white"/>
</clipPath>
</defs>
</svg>
