<svg width="126" height="131" viewBox="0 0 126 131" fill="none" xmlns="http://www.w3.org/2000/svg">
<path d="M66.18 8.91488L64.6562 -0.00012207L66.6971 0.301823L68.0002 8.19108L66.9797 8.04011L70.6208 0.882347L72.443 1.15194L73.7582 9.043L72.7742 8.89742L76.3667 1.73246L78.2496 2.01104L74.2096 10.1029L72.0959 9.79016L70.9235 2.86366L71.4823 2.94634L68.2937 9.22761L66.18 8.91488Z" fill="#0F1137"/>
<path d="M83.8776 13.1333L84.3678 11.9407L84.3616 11.6328L85.2394 9.49756C85.395 9.11897 85.399 8.77542 85.2515 8.46692C85.1115 8.16152 84.803 7.91078 84.3259 7.71468C84.0003 7.58084 83.6568 7.50155 83.2952 7.47683C82.9442 7.44764 82.6232 7.47499 82.332 7.55887L82.2049 6.05942C82.6346 5.96165 83.1106 5.94489 83.633 6.00916C84.1553 6.07342 84.6588 6.20516 85.1434 6.40437C86.0747 6.78723 86.7076 7.30407 87.0419 7.9549C87.3763 8.60573 87.352 9.39681 86.9692 10.3281L85.5358 13.815L83.8776 13.1333ZM81.9775 12.4584C81.5005 12.2623 81.1243 12.0148 80.8489 11.7157C80.5767 11.409 80.4073 11.0783 80.3407 10.7234C80.2742 10.3685 80.3125 10.017 80.4557 9.66866C80.6051 9.30521 80.8229 9.02299 81.1091 8.822C81.4029 8.62412 81.774 8.52883 82.2224 8.53614C82.6739 8.53588 83.2101 8.66336 83.831 8.9186L85.4552 9.58627L85.0303 10.6198L83.5992 10.0315C83.1828 9.86033 82.867 9.8102 82.652 9.88113C82.4445 9.95517 82.2988 10.0944 82.2147 10.2988C82.1214 10.526 82.1337 10.7435 82.2518 10.9514C82.3807 11.1548 82.6003 11.3204 82.9107 11.448C83.206 11.5694 83.4991 11.6102 83.7898 11.5704C84.0837 11.523 84.3396 11.3848 84.5577 11.1558L84.4941 12.0856C84.2035 12.4264 83.8459 12.629 83.4211 12.6934C82.9963 12.7578 82.5151 12.6794 81.9775 12.4584Z" fill="#0F1137"/>
<path d="M92.0602 17.3866C91.4002 16.9752 90.99 16.488 90.8296 15.925C90.6736 15.3551 90.8034 14.7366 91.2191 14.0697L94.2849 9.15068L95.9107 10.164L92.8579 15.0621C92.7106 15.2983 92.6584 15.5214 92.7012 15.7313C92.7483 15.9343 92.8796 16.103 93.0949 16.2372C93.352 16.3974 93.6142 16.4643 93.8814 16.438L93.6046 17.8571C93.3643 17.8713 93.1065 17.8361 92.8313 17.7514C92.5674 17.6641 92.3104 17.5425 92.0602 17.3866ZM91.7896 11.2274L92.569 9.97679L96.4563 12.3996L95.6768 13.6501L91.7896 11.2274Z" fill="#0F1137"/>
<path d="M98.9833 22.4046C98.4475 21.9353 98.0647 21.4094 97.8348 20.827C97.6103 20.2385 97.5479 19.6451 97.6476 19.0468C97.7535 18.4538 98.0222 17.911 98.4538 17.4184C98.8908 16.9196 99.3935 16.5819 99.962 16.4051C100.542 16.2275 101.136 16.2144 101.743 16.3657C102.356 16.5109 102.931 16.8182 103.466 17.2875C103.99 17.7461 104.348 18.2561 104.542 18.8177C104.741 19.373 104.755 19.9349 104.584 20.5031L102.94 20.1244C103.016 19.7771 103.004 19.4617 102.904 19.1782C102.81 18.9001 102.649 18.6613 102.421 18.4617C102.175 18.2459 101.905 18.1071 101.611 18.0453C101.316 17.9835 101.022 18.003 100.727 18.1037C100.438 18.2098 100.167 18.4076 99.9132 18.697C99.6596 18.9864 99.4993 19.2812 99.4321 19.5816C99.371 19.8873 99.3905 20.1819 99.4904 20.4653C99.5904 20.7488 99.7635 20.9984 100.01 21.2142C100.238 21.4138 100.493 21.5449 100.775 21.6075C101.07 21.6692 101.387 21.6367 101.726 21.5098L102.31 23.0986C101.774 23.337 101.216 23.3971 100.634 23.2789C100.057 23.1546 99.5067 22.8632 98.9833 22.4046Z" fill="#0F1137"/>
<path d="M112.003 26.1381C112.323 26.5529 112.524 26.9873 112.605 27.4414C112.698 27.897 112.646 28.3513 112.447 28.8044C112.255 29.2524 111.893 29.6815 111.362 30.0916L108.368 32.4022L107.197 30.8856L109.958 28.755C110.38 28.4299 110.618 28.0959 110.674 27.7529C110.735 27.4163 110.635 27.0796 110.375 26.7425C110.19 26.5027 109.971 26.3256 109.717 26.2112C109.475 26.0983 109.207 26.0667 108.915 26.1166C108.628 26.1729 108.322 26.3261 107.998 26.5762L105.412 28.5718L104.241 27.0551L111.455 21.4886L112.625 23.0052L109.194 25.6534L109.368 24.9756C109.863 24.8935 110.34 24.9549 110.798 25.1598C111.256 25.3648 111.658 25.6909 112.003 26.1381Z" fill="#0F1137"/>
<path d="M115.495 46.3754C115.285 45.7291 115.196 45.0954 115.227 44.4743C115.26 43.861 115.402 43.29 115.652 42.7612C115.905 42.2403 116.251 41.7835 116.692 41.3909C117.135 41.0061 117.66 40.7151 118.268 40.518C118.875 40.3209 119.471 40.248 120.056 40.2993C120.643 40.3583 121.193 40.5284 121.706 40.8095C122.219 41.0906 122.669 41.4696 123.056 41.9464C123.443 42.4233 123.741 42.981 123.948 43.6195C124.158 44.2658 124.244 44.8917 124.209 45.4973C124.175 46.1106 124.032 46.6777 123.779 47.1987C123.529 47.7274 123.184 48.1881 122.743 48.5807C122.31 48.9707 121.786 49.2656 121.171 49.4652C120.564 49.6623 119.963 49.7326 119.368 49.6761C118.78 49.617 118.23 49.447 117.717 49.1659C117.215 48.89 116.77 48.5137 116.383 48.0368C115.998 47.5677 115.702 47.014 115.495 46.3754ZM117.103 45.8407C117.222 46.2067 117.393 46.5213 117.616 46.7845C117.842 47.0556 118.109 47.27 118.419 47.4278C118.728 47.5856 119.063 47.675 119.422 47.696C119.784 47.7248 120.16 47.676 120.55 47.5496C120.939 47.4233 121.272 47.2421 121.548 47.0061C121.827 46.7779 122.045 46.5091 122.203 46.1997C122.363 45.8981 122.455 45.5713 122.479 45.2194C122.502 44.8675 122.455 44.5086 122.336 44.1426C122.217 43.7766 122.045 43.4581 121.819 43.187C121.596 42.9238 121.33 42.7133 121.02 42.5555C120.711 42.3977 120.375 42.3044 120.013 42.2756C119.653 42.2546 119.279 42.3073 118.889 42.4336C118.508 42.5574 118.174 42.7347 117.887 42.9654C117.611 43.2014 117.393 43.4702 117.232 43.7719C117.074 44.0813 116.984 44.4119 116.96 44.7638C116.937 45.1157 116.984 45.4747 117.103 45.8407Z" fill="#0F1137"/>
<path d="M118.341 58.1927C118.294 57.6462 118.357 57.1477 118.532 56.697C118.707 56.2546 119.001 55.8964 119.413 55.6224C119.833 55.3478 120.381 55.1812 121.058 55.1226L124.777 54.8008L124.942 56.7094L121.505 57.0068C120.958 57.0541 120.564 57.2032 120.323 57.4542C120.091 57.7126 119.993 58.0539 120.03 58.478C120.055 58.7716 120.139 59.0273 120.281 59.2451C120.431 59.4622 120.642 59.6247 120.915 59.7326C121.195 59.8398 121.535 59.8761 121.935 59.8415L125.189 59.56L125.354 61.4685L118.772 62.038L118.616 60.2273L120.426 60.0707L119.929 60.4465C119.453 60.2658 119.078 59.9696 118.804 59.5577C118.539 59.1534 118.385 58.6984 118.341 58.1927Z" fill="#0F1137"/>
<path d="M118.872 67.1063L125.451 67.7059L125.285 69.5281L123.426 69.3587L123.988 69.1509C124.434 69.3889 124.756 69.7348 124.953 70.1884C125.159 70.6428 125.233 71.1798 125.177 71.7994L123.416 71.6389C123.431 71.5581 123.442 71.4851 123.448 71.4199C123.462 71.3554 123.472 71.2865 123.479 71.2131C123.527 70.6913 123.414 70.2536 123.142 69.9C122.878 69.5553 122.432 69.3544 121.804 69.2971L118.698 69.014L118.872 67.1063Z" fill="#0F1137"/>
<path d="M115.523 84.1588L124.883 83.9553L124.075 85.9465L115.801 86.0871L116.276 84.9151L122.093 90.8279L121.35 92.6598L114.784 85.9793L115.523 84.1588Z" fill="#0F1137"/>
<path d="M111.804 92.3267L117.437 95.7785L116.436 97.4119L110.803 93.9601L111.804 92.3267ZM117.722 97.0764C117.906 96.7763 118.143 96.5854 118.433 96.5039C118.723 96.4224 118.997 96.4607 119.255 96.619C119.513 96.7773 119.672 97.0041 119.731 97.2995C119.79 97.5949 119.728 97.8927 119.544 98.1928C119.36 98.493 119.126 98.686 118.843 98.7718C118.567 98.8619 118.3 98.8278 118.042 98.6695C117.77 98.5027 117.6 98.2695 117.534 97.9698C117.471 97.6814 117.534 97.3836 117.722 97.0764Z" fill="#0F1137"/>
<path d="M106.428 100.105C106.834 99.6344 107.306 99.301 107.843 99.105C108.387 98.9144 108.947 98.8735 109.523 98.9823C110.095 99.0972 110.641 99.3795 111.161 99.829C111.688 100.284 112.049 100.786 112.246 101.334C112.438 101.889 112.475 102.446 112.36 103.006C112.244 103.566 111.983 104.082 111.576 104.552C111.212 104.974 110.801 105.262 110.342 105.417C109.883 105.573 109.39 105.574 108.862 105.421C108.334 105.268 107.776 104.937 107.188 104.429C106.605 103.926 106.194 103.425 105.955 102.926C105.721 102.432 105.648 101.947 105.735 101.471C105.817 101 106.048 100.545 106.428 100.105ZM107.4 101.384C107.197 101.619 107.068 101.881 107.014 102.169C106.959 102.458 106.986 102.746 107.094 103.034C107.203 103.334 107.4 103.607 107.685 103.853C107.976 104.104 108.275 104.26 108.581 104.318C108.882 104.384 109.171 104.368 109.448 104.273C109.726 104.177 109.966 104.011 110.17 103.776C110.378 103.534 110.51 103.269 110.564 102.981C110.619 102.692 110.594 102.401 110.492 102.107C110.384 101.819 110.184 101.549 109.893 101.297C109.608 101.051 109.312 100.893 109.005 100.822C108.699 100.763 108.407 100.782 108.129 100.878C107.852 100.973 107.609 101.142 107.4 101.384ZM105.153 101.731L106.176 102.614L107.638 103.926L109.196 105.109L112.105 107.622L110.853 109.072L103.957 103.115L105.153 101.731Z" fill="#0F1137"/>
<path d="M97.8473 108.656C98.443 108.195 99.0576 107.906 99.6912 107.788C100.318 107.676 100.91 107.725 101.467 107.936C102.029 108.153 102.51 108.521 102.911 109.039C103.316 109.564 103.555 110.119 103.626 110.706C103.695 111.304 103.607 111.88 103.362 112.432C103.121 112.991 102.736 113.475 102.205 113.886C101.693 114.282 101.148 114.528 100.57 114.623C99.9905 114.73 99.4231 114.672 98.8679 114.45C98.3177 114.234 97.8247 113.844 97.3888 113.281C97.3437 113.222 97.2943 113.152 97.2407 113.069C97.1921 112.993 97.1459 112.92 97.1023 112.85L101.346 109.566L102.03 110.45L98.5826 113.118L98.9624 112.405C99.1728 112.677 99.4107 112.87 99.6761 112.986C99.9415 113.101 100.214 113.139 100.493 113.099C100.778 113.065 101.049 112.948 101.308 112.748C101.567 112.547 101.752 112.311 101.863 112.039C101.972 111.779 102.001 111.502 101.951 111.21C101.906 110.924 101.775 110.642 101.56 110.364L101.38 110.131C101.159 109.846 100.902 109.641 100.609 109.516C100.314 109.402 100.008 109.375 99.6914 109.434C99.3731 109.504 99.0586 109.66 98.7478 109.9C98.4694 110.115 98.2592 110.345 98.1171 110.59C97.9686 110.839 97.872 111.116 97.8275 111.42L96.345 111.169C96.3742 110.712 96.5124 110.269 96.7598 109.839C97.0121 109.416 97.3746 109.022 97.8473 108.656Z" fill="#0F1137"/>
<path d="M88.9789 114.511C89.6087 114.196 90.2348 114.048 90.8572 114.066C91.4723 114.088 92.0361 114.255 92.5486 114.566C93.0574 114.889 93.4582 115.343 93.751 115.929C94.0474 116.522 94.1699 117.115 94.1185 117.708C94.0634 118.312 93.8583 118.863 93.503 119.361C93.1441 119.87 92.6498 120.282 92.02 120.596C91.3975 120.907 90.7751 121.054 90.1527 121.035C89.5339 121.024 88.972 120.861 88.4668 120.546C87.9616 120.231 87.559 119.773 87.2589 119.173C86.9662 118.587 86.8437 117.994 86.8914 117.393C86.9428 116.8 87.148 116.249 87.5069 115.74C87.8658 115.232 88.3565 114.822 88.9789 114.511ZM89.6816 115.917C89.396 116.059 89.1726 116.253 89.0114 116.499C88.8503 116.744 88.7642 117.02 88.7531 117.328C88.7457 117.643 88.8262 117.969 88.9945 118.305C89.1665 118.65 89.3788 118.91 89.6314 119.085C89.884 119.261 90.1567 119.358 90.4496 119.377C90.7425 119.395 91.0318 119.333 91.3174 119.19C91.603 119.047 91.8263 118.853 91.9875 118.608C92.1486 118.363 92.2384 118.085 92.2568 117.774C92.2678 117.466 92.1874 117.14 92.0154 116.796C91.847 116.459 91.6347 116.199 91.3785 116.016C91.1186 115.844 90.8422 115.749 90.5493 115.73C90.2564 115.712 89.9672 115.774 89.6816 115.917Z" fill="#0F1137"/>
<path d="M72.6792 127.749L74.1311 126.581L74.1868 126.896L72.4244 126.31L72.8413 125.213L74.4992 125.843L74.3492 125.982L74.0273 124.305L75.164 124.104L75.4495 125.787L75.261 125.708L76.6019 124.547L77.3579 125.436L75.9038 126.592L75.8482 126.277L77.6127 126.875L77.2079 127.969L75.5479 127.328L75.7 127.201L76.0098 128.88L74.8732 129.081L74.5997 127.396L74.7861 127.463L73.4473 128.635L72.6792 127.749Z" fill="#0F1137"/>
<path d="M58.7763 121.162L60.1992 130.093L58.1619 129.768L56.948 121.865L57.9667 122.027L54.245 129.144L52.426 128.853L51.2 120.948L52.1822 121.105L48.5091 128.229L46.6295 127.929L50.7605 119.883L52.8706 120.22L53.9647 127.159L53.4069 127.07L56.6662 120.825L58.7763 121.162Z" fill="#0F1137"/>
<path d="M41.1264 116.741L40.6227 117.928L40.6254 118.236L39.7234 120.361C39.5635 120.738 39.5555 121.082 39.6996 121.392C39.8361 121.699 40.1418 121.953 40.6165 122.155C40.9406 122.292 41.2832 122.375 41.6445 122.404C41.9951 122.437 42.3164 122.414 42.6085 122.333L42.7186 123.834C42.2879 123.927 41.8117 123.938 41.2901 123.868C40.7685 123.798 40.2665 123.66 39.7842 123.456C38.8573 123.062 38.2304 122.538 37.9034 121.884C37.5765 121.229 37.6097 120.438 38.0032 119.511L39.4761 116.041L41.1264 116.741ZM43.0187 117.438C43.4934 117.639 43.8668 117.891 44.1387 118.193C44.4075 118.503 44.5731 118.836 44.6357 119.191C44.6982 119.547 44.6559 119.898 44.5087 120.245C44.3552 120.606 44.1342 120.886 43.8457 121.084C43.5497 121.278 43.1776 121.369 42.7293 121.357C42.2778 121.352 41.743 121.219 41.1251 120.956L39.5086 120.27L39.9452 119.242L41.3695 119.846C41.784 120.022 42.0991 120.076 42.315 120.007C42.5233 119.936 42.6706 119.798 42.7569 119.595C42.8529 119.368 42.843 119.151 42.7272 118.942C42.6008 118.737 42.383 118.569 42.0741 118.438C41.7802 118.313 41.4876 118.269 41.1964 118.305C40.902 118.349 40.6445 118.485 40.4239 118.711L40.498 117.782C40.7924 117.445 41.1524 117.246 41.5779 117.186C42.0034 117.127 42.4836 117.211 43.0187 117.438Z" fill="#0F1137"/>
<path d="M32.9903 112.395C33.6456 112.814 34.0503 113.306 34.2042 113.87C34.3538 114.442 34.217 115.059 33.7938 115.721L30.6724 120.605L29.0583 119.573L32.1664 114.71C32.3163 114.476 32.371 114.253 32.3306 114.043C32.2858 113.839 32.1565 113.669 31.9426 113.532C31.6874 113.369 31.426 113.299 31.1585 113.323L31.4513 111.907C31.6918 111.895 31.9492 111.934 32.2234 112.021C32.4863 112.112 32.7419 112.236 32.9903 112.395ZM33.1911 118.557L32.3976 119.798L28.538 117.332L29.3316 116.09L33.1911 118.557Z" fill="#0F1137"/>
<path d="M26.1234 107.298C26.6538 107.773 27.0306 108.303 27.254 108.888C27.4718 109.479 27.5275 110.073 27.421 110.67C27.3084 111.262 27.0336 111.802 26.5965 112.29C26.1539 112.783 25.6474 113.115 25.0769 113.286C24.495 113.457 23.9011 113.463 23.2953 113.305C22.684 113.153 22.1132 112.839 21.5828 112.364C21.0646 111.899 20.7118 111.385 20.5245 110.822C20.3316 110.264 20.3241 109.702 20.5018 109.136L22.1411 109.533C22.0614 109.88 22.07 110.195 22.1667 110.48C22.2574 110.759 22.4155 110.999 22.641 111.202C22.8849 111.42 23.1535 111.562 23.447 111.627C23.7404 111.692 24.0352 111.676 24.3313 111.579C24.6214 111.476 24.8948 111.281 25.1516 110.995C25.4084 110.708 25.5721 110.415 25.6427 110.116C25.7072 109.811 25.6911 109.516 25.5943 109.231C25.4976 108.947 25.3273 108.695 25.0835 108.476C24.8579 108.274 24.6042 108.14 24.3223 108.075C24.0289 108.009 23.7116 108.038 23.3705 108.161L22.8049 106.566C23.343 106.334 23.9024 106.28 24.4832 106.405C25.0585 106.536 25.6052 106.833 26.1234 107.298Z" fill="#0F1137"/>
<path d="M13.1457 103.416C12.8304 102.997 12.6345 102.561 12.5581 102.106C12.4702 101.649 12.5281 101.195 12.7317 100.745C12.9287 100.299 13.2953 99.8739 13.8314 99.4699L16.8518 97.1933L18.0048 98.7231L15.2198 100.822C14.7948 101.143 14.5525 101.474 14.4927 101.816C14.428 102.152 14.5238 102.49 14.78 102.83C14.9623 103.072 15.1797 103.251 15.4321 103.369C15.6731 103.484 15.9401 103.519 16.233 103.472C16.5211 103.419 16.8286 103.27 17.1554 103.023L19.7639 101.057L20.917 102.587L13.6406 108.071L12.4876 106.541L15.9492 103.932L15.7667 104.608C15.2707 104.685 14.7949 104.618 14.3392 104.408C13.8836 104.198 13.4857 103.867 13.1457 103.416Z" fill="#0F1137"/>
<path d="M9.88422 83.1415C10.0865 83.7901 10.1687 84.4248 10.1308 85.0455C10.0904 85.6584 9.9421 86.2278 9.6859 86.7536C9.42726 87.2716 9.07538 87.7244 8.63025 88.1119C8.18269 88.4917 7.65411 88.7766 7.04451 88.9667C6.43492 89.1568 5.83809 89.2229 5.25402 89.165C4.66752 89.0992 4.11942 88.9228 3.60971 88.6359C3.10001 88.3489 2.65434 87.9648 2.27269 87.4835C1.89105 87.0023 1.60029 86.4412 1.40041 85.8004C1.1981 85.1517 1.11835 84.5248 1.16117 83.9197C1.20156 83.3069 1.35107 82.7414 1.60971 82.2234C1.86591 81.6975 2.21657 81.2409 2.6617 80.8533C3.099 80.4683 3.62636 80.1794 4.24378 79.9869C4.85337 79.7967 5.45533 79.7333 6.04965 79.7967C6.63615 79.8624 7.18425 80.0388 7.69396 80.3258C8.19341 80.6073 8.63396 80.9888 9.0156 81.47C9.3948 81.9435 9.68435 82.5006 9.88422 83.1415ZM8.2701 83.6578C8.15554 83.2904 7.9882 82.9739 7.76809 82.7081C7.54554 82.4345 7.28048 82.217 6.97289 82.0557C6.6653 81.8943 6.3318 81.8011 5.97237 81.776C5.6105 81.7431 5.23418 81.7876 4.84341 81.9094C4.45265 82.0313 4.11777 82.2087 3.83878 82.4415C3.55735 82.6664 3.33597 82.9327 3.17463 83.2403C3.01086 83.5401 2.9152 83.8658 2.88766 84.2174C2.86011 84.569 2.90363 84.9285 3.01819 85.2958C3.13275 85.6631 3.30131 85.9836 3.52386 86.2572C3.74397 86.523 4.00781 86.7366 4.3154 86.8979C4.62299 87.0592 4.95772 87.1564 5.31958 87.1893C5.67901 87.2144 6.05411 87.166 6.44488 87.0441C6.82783 86.9247 7.16393 86.7513 7.45317 86.5238C7.73216 86.291 7.95355 86.0247 8.11732 85.725C8.27865 85.4174 8.37309 85.0878 8.40063 84.7362C8.42818 84.3846 8.38467 84.0251 8.2701 83.6578Z" fill="#0F1137"/>
<path d="M7.17373 71.2898C7.21481 71.8368 7.14547 72.3345 6.96571 72.7832C6.78534 73.2236 6.4877 73.5785 6.07281 73.8477C5.64975 74.1176 5.09943 74.2779 4.42185 74.3288L0.699219 74.6084L0.55575 72.6981L3.99673 72.4397C4.5437 72.3986 4.93922 72.254 5.18329 72.0058C5.41858 71.75 5.52029 71.4099 5.4884 70.9854C5.46633 70.6915 5.38548 70.4348 5.24586 70.2154C5.09808 69.9967 4.88866 69.8318 4.61761 69.7208C4.3384 69.6104 3.99879 69.5702 3.59877 69.6003L0.341465 69.8449L0.197996 67.9346L6.78607 67.4398L6.92218 69.2522L5.10985 69.3883L5.61158 69.0181C6.08529 69.2042 6.45678 69.5047 6.72602 69.9196C6.98648 70.3269 7.13572 70.7836 7.17373 71.2898Z" fill="#0F1137"/>
<path d="M6.74409 62.3724L0.171945 61.6983L0.358662 59.8781L2.21548 60.0686L1.65166 60.27C1.20751 60.0269 0.889483 59.6774 0.697587 59.2216C0.497547 58.7649 0.429274 58.2271 0.492766 57.6081L2.25185 57.7886C2.23535 57.8692 2.22376 57.9421 2.21708 58.0072C2.20225 58.0715 2.19108 58.1403 2.18356 58.2136C2.13009 58.7348 2.23731 59.1738 2.50522 59.5304C2.76582 59.8781 3.20966 60.0841 3.83674 60.1485L6.93957 60.4668L6.74409 62.3724Z" fill="#0F1137"/>
<path d="M10.2832 45.3651L0.921875 45.4625L1.75261 43.4805L10.0275 43.4338L9.5386 44.6003L3.78909 38.622L4.55336 36.7986L11.0428 43.5531L10.2832 45.3651Z" fill="#0F1137"/>
<path d="M14.0977 37.2362L8.50405 33.7208L9.52341 32.0988L15.1171 35.6143L14.0977 37.2362ZM8.23395 32.4197C8.04663 32.7178 7.80752 32.9059 7.51662 32.9842C7.22571 33.0624 6.95203 33.0209 6.69557 32.8597C6.4391 32.6986 6.28304 32.47 6.22737 32.1739C6.1717 31.8778 6.23753 31.5808 6.42485 31.2827C6.61216 30.9847 6.84781 30.7944 7.13178 30.7118C7.40882 30.6248 7.67558 30.6619 7.93204 30.8231C8.20236 30.993 8.36882 31.2281 8.43142 31.5286C8.49145 31.8177 8.42562 32.1147 8.23395 32.4197Z" fill="#0F1137"/>
<path d="M19.5614 29.5183C19.1494 29.9845 18.6737 30.3126 18.1344 30.5025C17.589 30.6869 17.0286 30.7215 16.4531 30.6062C15.883 30.4848 15.3403 30.1964 14.825 29.741C14.3036 29.2802 13.9476 28.7744 13.757 28.2236C13.5718 27.6666 13.5403 27.1089 13.6624 26.5504C13.7846 25.9918 14.0516 25.4795 14.4637 25.0133C14.8323 24.5961 15.2469 24.3124 15.7074 24.1622C16.1679 24.012 16.6612 24.0164 17.1872 24.1753C17.7132 24.3342 18.2675 24.6712 18.8503 25.1862C19.427 25.6958 19.8323 26.2015 20.0662 26.7032C20.294 27.1996 20.3617 27.6855 20.2693 28.161C20.1822 28.6303 19.9463 29.0828 19.5614 29.5183ZM18.6031 28.229C18.8091 27.9959 18.941 27.7355 18.9986 27.4477C19.0562 27.16 19.0326 26.8714 18.9278 26.5821C18.8222 26.2812 18.6283 26.0061 18.3461 25.7567C18.0578 25.5019 17.7609 25.3433 17.4555 25.281C17.1555 25.2125 16.8662 25.2246 16.5878 25.3172C16.3093 25.4097 16.067 25.5726 15.861 25.8057C15.6496 26.0449 15.5151 26.3084 15.4574 26.5962C15.3998 26.8839 15.4207 27.1755 15.5201 27.471C15.625 27.7603 15.8216 28.0324 16.1099 28.2872C16.3921 28.5366 16.6862 28.6982 16.9924 28.7721C17.2978 28.8344 17.5898 28.8193 17.8683 28.7267C18.1467 28.6342 18.3917 28.4682 18.6031 28.229ZM20.8539 27.9074L19.8417 27.0129L18.3939 25.6842L16.8495 24.4832L13.9694 21.9379L15.2379 20.5025L22.0656 26.5363L20.8539 27.9074Z" fill="#0F1137"/>
<path d="M28.2404 21.0643C27.6396 21.5184 27.0217 21.8007 26.3868 21.9111C25.7585 22.0166 25.1672 21.9607 24.613 21.7434C24.0538 21.5195 23.5768 21.1463 23.1819 20.6238C22.782 20.0948 22.5499 19.5365 22.4855 18.9489C22.4227 18.3499 22.5172 17.7757 22.7689 17.2262C23.0158 16.6702 23.4069 16.1899 23.9425 15.7851C24.4584 15.3951 25.0061 15.1557 25.5853 15.0668C26.1662 14.9664 26.733 15.0306 27.2856 15.2594C27.8333 15.4817 28.3219 15.8769 28.7513 16.4451C28.7958 16.5039 28.8443 16.5749 28.897 16.6582C28.9448 16.735 28.9901 16.8085 29.0329 16.8788L24.7518 20.1145L24.078 19.223L27.5558 16.5945L27.1679 17.3032C26.9606 17.0289 26.7249 16.8325 26.4609 16.7139C26.1968 16.5954 25.9249 16.5547 25.645 16.5917C25.3602 16.6222 25.0872 16.7362 24.826 16.9337C24.5647 17.1311 24.3773 17.3652 24.2637 17.6357C24.1517 17.8949 24.1192 18.1709 24.1661 18.4638C24.2081 18.7502 24.3352 19.0338 24.5475 19.3146L24.7252 19.5497C24.9424 19.8371 25.1969 20.0449 25.4889 20.1732C25.7824 20.29 26.0879 20.3208 26.4053 20.2655C26.7243 20.1989 27.0406 20.0471 27.3541 19.8101C27.6349 19.5979 27.8477 19.3703 27.9926 19.1274C28.1439 18.8796 28.2436 18.6042 28.2916 18.3011L29.7711 18.5682C29.7368 19.0252 29.5935 19.467 29.3413 19.8936C29.0842 20.3137 28.7172 20.704 28.2404 21.0643Z" fill="#0F1137"/>
<path d="M37.1746 15.3109C36.5413 15.6184 35.9135 15.7593 35.2914 15.7337C34.6766 15.7046 34.1148 15.5314 33.6059 15.2142C33.1008 14.8861 32.7052 14.4275 32.4192 13.8383C32.1296 13.2418 32.0138 12.6473 32.072 12.0548C32.134 11.4514 32.3455 10.9028 32.7064 10.4091C33.0711 9.90442 33.5701 9.49834 34.2035 9.19085C34.8295 8.88695 35.4536 8.74778 36.0757 8.77336C36.6943 8.79157 37.2543 8.96105 37.7559 9.28179C38.2574 9.60254 38.6547 10.0649 38.9479 10.6688C39.2339 11.2579 39.3497 11.8524 39.2951 12.4523C39.2369 13.0447 39.0254 13.5933 38.6607 14.098C38.296 14.6027 37.8006 15.007 37.1746 15.3109ZM36.4882 13.8969C36.7754 13.7574 37.001 13.566 37.1649 13.3226C37.3289 13.0792 37.4181 12.8038 37.4327 12.4964C37.4437 12.1817 37.367 11.8549 37.2025 11.5161C37.0345 11.17 36.8252 10.9076 36.5746 10.7289C36.3241 10.5502 36.0525 10.45 35.7598 10.4283C35.4671 10.4066 35.1772 10.4654 34.89 10.6049C34.6027 10.7443 34.3772 10.9357 34.2132 11.1791C34.0493 11.4225 33.9563 11.6997 33.9344 12.0107C33.9198 12.3181 33.9965 12.6448 34.1646 12.991C34.329 13.3297 34.5383 13.5921 34.7925 13.7782C35.0504 13.9533 35.3257 14.0517 35.6183 14.0734C35.911 14.0952 36.2009 14.0363 36.4882 13.8969Z" fill="#0F1137"/>
<path d="M53.6142 2.26121L52.1492 3.41227L52.0971 3.09727L53.8528 3.70292L53.4235 4.79461L51.7729 4.14668L51.9245 4.00958L52.2274 5.68958L51.0885 5.87804L50.822 4.19202L51.0096 4.27299L49.6557 5.41811L48.9098 4.5209L50.3768 3.38196L50.4289 3.69696L48.6712 3.07919L49.0883 1.98951L50.741 2.64955L50.5874 2.77454L50.2966 1.09253L51.4355 0.904073L51.6899 2.5921L51.5042 2.52324L52.8562 1.366L53.6142 2.26121Z" fill="#0F1137"/>
</svg>
