<svg width="57" height="35" viewBox="0 0 57 35" fill="none" xmlns="http://www.w3.org/2000/svg">
<path d="M35.8357 31.8648C36.0471 31.9771 36.2175 31.9375 36.3803 31.9377C39.4326 31.9414 42.4859 31.8933 45.5369 31.9536C50.2416 32.0466 53.7808 27.9333 53.7691 23.8992C53.7595 20.5641 52.3724 17.9267 49.4267 16.1506C48.9576 15.8678 48.4416 15.6753 47.9167 15.5131C46.9235 15.2062 46.4175 14.5745 46.3553 13.5464C46.1722 10.5177 44.9543 7.93363 42.7554 5.82298C40.6551 3.80704 38.1051 2.70393 35.1603 2.45497C29.9304 2.01286 25.2108 4.98842 23.2064 9.27245C23.0102 9.69187 22.8712 10.1372 22.711 10.5724C22.5248 11.0782 22.4205 11.1155 21.9663 10.7936C21.123 10.1958 20.2517 9.64522 19.2597 9.31237C16.6175 8.42579 14.1718 8.67149 12.0602 10.595C11.1348 11.4379 10.5019 12.4628 10.3026 13.7145C10.246 14.0702 10.3446 14.2275 10.7305 14.2659C11.2752 14.3202 11.82 14.4076 12.3534 14.529C13.0393 14.685 13.4163 15.2626 13.2974 15.8972C13.1654 16.6019 12.667 16.9778 11.9233 16.9067C11.5903 16.8749 11.2608 16.8037 10.9313 16.7422C7.9203 16.1802 5.10178 17.7922 3.61537 20.1347C0.46389 25.1014 3.98425 31.3615 9.60417 31.8958C10.9051 32.0195 12.2269 31.9366 13.5392 31.9428C14.5769 31.9477 15.615 31.9285 16.6523 31.9509C17.0546 31.9596 17.3383 31.8289 17.609 31.5434C20.5669 28.4239 23.531 25.31 26.5007 22.2012C29.6997 18.8524 32.906 15.5102 36.1107 12.1666C36.2773 11.9927 36.4437 11.8131 36.6357 11.6688C37.1086 11.3132 37.7498 11.3114 38.216 11.6417C38.6588 11.9554 38.7841 12.4515 38.5753 13.0472C38.4427 13.4257 38.1819 13.7173 37.9096 14.0014C34.0481 18.0318 30.182 22.0581 26.3261 26.0937C24.0231 28.504 21.7309 30.9242 19.4447 33.3498C18.7659 34.07 18.0031 34.4454 16.9519 34.4117C14.8328 34.3439 12.7098 34.4034 10.5887 34.3873C5.30725 34.3473 1.00051 30.7417 0.135032 25.6508C-0.700592 20.7354 2.42123 15.8859 7.30924 14.5316C7.65696 14.4353 7.79958 14.3012 7.83043 13.9372C8.155 10.1077 11.3605 7.01106 15.3391 6.50336C17.1934 6.26674 18.9863 6.55073 20.6892 7.33466C21.2604 7.59762 21.2489 7.57328 21.5805 7.04545C24.0841 3.06045 27.6682 0.641612 32.4419 0.110182C37.2981 -0.430458 41.4883 1.015 44.8574 4.52416C47.0223 6.77914 48.2897 9.47464 48.6723 12.5515C48.7322 13.0326 48.9093 13.2826 49.3987 13.474C52.0027 14.4924 53.8496 16.3267 55.0124 18.7941C56.7515 22.4845 56.7072 26.1557 54.4388 29.6116C52.3726 32.7597 49.3359 34.376 45.4802 34.3893C40.444 34.4067 35.4077 34.3958 30.3715 34.3942C30.2408 34.3942 30.0565 34.4667 29.9902 34.334C29.9059 34.1653 30.1082 34.0823 30.2043 33.9811C33.6076 30.3905 37.013 26.8018 40.4205 23.2151C41.3971 22.1871 42.3734 21.1586 43.3643 20.1438C44.0341 19.4578 44.8966 19.4585 45.4325 20.1173C45.8489 20.6291 45.8041 21.2801 45.2686 21.8671C44.5676 22.6357 43.8427 23.3833 43.1273 24.1392C40.7634 26.637 38.399 29.1345 36.0354 31.6325C35.9743 31.6969 35.9194 31.767 35.8357 31.8648Z" fill="url(#paint0_linear_1641_167)"/>
<path d="M24.252 34.3927C23.7942 34.3927 23.3364 34.3945 22.8786 34.3914C22.7755 34.3907 22.6443 34.4206 22.5855 34.3165C22.5107 34.184 22.6356 34.0909 22.7121 34.0091C23.1963 33.4915 23.687 32.9798 24.1772 32.4676C28.0261 28.4467 31.8786 24.4291 35.7228 20.404C37.056 19.008 38.3712 17.5956 39.6894 16.186C40.0523 15.7979 40.4755 15.5686 41.0242 15.6487C41.991 15.7898 42.4093 16.8009 41.8219 17.651C41.5424 18.0554 41.1764 18.4051 40.8332 18.7645C37.1456 22.6265 33.4541 26.4849 29.7652 30.3457C28.64 31.5233 27.5068 32.6939 26.4039 33.8913C26.0552 34.2699 25.684 34.4513 25.1669 34.3962C24.8653 34.3641 24.5572 34.3904 24.252 34.3904C24.252 34.3912 24.252 34.392 24.252 34.3927Z" fill="url(#paint1_linear_1641_167)"/>
<path d="M15.0609 29.4889C14.2483 29.4736 13.7094 28.7352 13.9538 27.9511C14.1033 27.4715 14.394 27.0658 14.7396 26.7027C18.5534 22.6948 22.3696 18.6893 26.186 14.6838C27.1011 13.7232 28.0111 12.7579 28.9387 11.809C29.3949 11.3423 30.1294 11.2815 30.6579 11.625C31.144 11.9409 31.2818 12.5609 31.0073 13.186C30.8912 13.4504 30.7219 13.6794 30.5219 13.8866C29.7158 14.7221 28.9006 15.5492 28.1008 16.3905C25.1823 19.4602 22.2692 22.535 19.3528 25.6067C18.2941 26.7218 17.2313 27.8332 16.1716 28.9474C15.8699 29.2646 15.5259 29.4943 15.0609 29.4889Z" fill="url(#paint2_linear_1641_167)"/>
<defs>
<linearGradient id="paint0_linear_1641_167" x1="0" y1="17.207" x2="56.2374" y2="17.207" gradientUnits="userSpaceOnUse">
<stop stop-color="white"/>
<stop offset="1" stop-color="white"/>
</linearGradient>
<linearGradient id="paint1_linear_1641_167" x1="22.5625" y1="25.0194" x2="42.0919" y2="25.0194" gradientUnits="userSpaceOnUse">
<stop stop-color="white"/>
<stop offset="1" stop-color="white"/>
</linearGradient>
<linearGradient id="paint2_linear_1641_167" x1="13.8945" y1="20.4476" x2="31.1468" y2="20.4476" gradientUnits="userSpaceOnUse">
<stop stop-color="white"/>
<stop offset="1" stop-color="white"/>
</linearGradient>
</defs>
</svg>
